<svg xmlns="http://www.w3.org/2000/svg" xmlns:xlink="http://www.w3.org/1999/xlink" viewBox="0 0 320 231.5"><defs><style>.cls-1{fill:#f6f3f7;}.cls-2{fill:url(#linear-gradient);}.cls-3{fill:#fff;}.cls-4{fill:#4a6cb8;}.cls-5{fill:#00b0bc;}.cls-6{fill:url(#linear-gradient-2);}.cls-7{fill:#33c0c9;}</style><linearGradient id="linear-gradient" x1="134.55" y1="112.11" x2="270.83" y2="315.45" gradientUnits="userSpaceOnUse"><stop offset="0" stop-color="#f6f3f7"/><stop offset="1" stop-color="#77488a"/></linearGradient><linearGradient id="linear-gradient-2" x1="190.05" y1="55.8" x2="319.99" y2="55.8" xlink:href="#linear-gradient"/></defs><title>2006 bowl</title><g id="Layer_2" data-name="Layer 2"><g id="NatWest-longform_3-digitisation-desktop"><path class="cls-1" d="M256.42,103.29A128.21,128.21,0,0,1,0,103.29"/><path class="cls-2" d="M141.71,230.79a128.22,128.22,0,0,0,114.71-127.5H27A128.22,128.22,0,0,0,141.71,230.79Z"/><path class="cls-3" d="M218.57,50.78c50.23,29,50.49,76,.59,105s-131.08,29-181.31,0-50.5-76-.59-105S168.34,21.78,218.57,50.78Z"/><path class="cls-4" d="M128.62,174.66c-33.74,0-65.47-7.59-89.33-21.37C15.85,139.76,2.92,121.94,2.9,103.11S15.59,66.72,38.71,53.29c23.7-13.78,55.34-21.36,89.09-21.36s65.46,7.58,89.32,21.36c23.45,13.53,36.37,31.36,36.4,50.18s-12.69,36.39-35.82,49.83C194,167.07,162.37,174.66,128.62,174.66Z"/><path class="cls-5" d="M219.29,63.26,172.34,35.57a88.55,88.55,0,0,0-88.26,0L36.79,63.12h0C16.66,75.33,4.89,90.86,3.14,107.4c1.83,17.23,14.5,33.39,36.15,45.89,23.86,13.78,55.59,21.37,89.33,21.37S194,167.07,217.7,153.3c21.3-12.38,33.77-28.37,35.58-45.43C251.51,91.22,239.62,75.57,219.29,63.26Z"/><path class="cls-3" d="M184.1,98.69S293.16,8.34,298.61,4s12-5.53,17.37-1.79,5.54,10.46-.58,14.84c-5.8,4.15-124,86.22-124,86.22Z"/><path class="cls-6" d="M315.4,15.19c-5.8,4.15-125.35,87.24-125.35,87.24l1.37.86s118.18-82.07,124-86.22c3.48-2.49,4.92-5.74,4.53-8.77A10.09,10.09,0,0,1,315.4,15.19Z"/><path class="cls-7" d="M36.79,63.12h0C16.66,75.33,4.89,90.86,3.14,107.4c1.83,17.23,14.5,33.39,36.15,45.89a153,153,0,0,0,39.8,15.55c6.52-27.34,20-83.92,26.32-108.74,8.44-33.34,22.8-36.31,22.8-36.31A88.53,88.53,0,0,0,84.08,35.57Z"/></g></g></svg>