<svg xmlns="http://www.w3.org/2000/svg" xmlns:xlink="http://www.w3.org/1999/xlink" viewBox="0 0 214.34 309.74"><defs><style>.cls-1{fill:#f6f3f7;}.cls-2{fill:#fff;}.cls-3{fill:url(#linear-gradient);}.cls-4{fill:#00b0bc;}.cls-5{fill:#4a6cb8;}.cls-6{fill:#42145f;}.cls-7{fill:url(#linear-gradient-2);}.cls-8{fill:url(#linear-gradient-3);}.cls-9{fill:url(#linear-gradient-4);}.cls-10{fill:url(#linear-gradient-5);}</style><linearGradient id="linear-gradient" x1="90.19" y1="207.06" x2="226.34" y2="278.59" gradientUnits="userSpaceOnUse"><stop offset="0.4" stop-color="#d1c2d8"/><stop offset="1" stop-color="#77488a"/></linearGradient><linearGradient id="linear-gradient-2" x1="66.8" y1="68.51" x2="231.1" y2="163.44" xlink:href="#linear-gradient"/><linearGradient id="linear-gradient-3" x1="134.65" y1="36.28" x2="168.88" y2="36.28" xlink:href="#linear-gradient"/><linearGradient id="linear-gradient-4" x1="90.05" y1="62.18" x2="124.28" y2="62.18" xlink:href="#linear-gradient"/><linearGradient id="linear-gradient-5" x1="45.45" y1="88.09" x2="79.69" y2="88.09" xlink:href="#linear-gradient"/></defs><title>2014 bricks</title><g id="Layer_2" data-name="Layer 2"><g id="NatWest-longform_3-digitisation-desktop"><polygon class="cls-1" points="71.37 242.88 71.37 309.74 0 268.54 0 201.68 71.37 242.88"/><polygon class="cls-2" points="214.34 159.72 71.37 242.88 0 201.68 142.97 118.52 214.34 159.72"/><polygon class="cls-3" points="71.37 309.74 71.37 242.88 214.34 159.72 214.34 226.58 71.37 309.74"/><path class="cls-2" d="M180.87,199c5.83-3.37,10.58-.66,10.6,6s-4.7,14.87-10.53,18.24-10.58.66-10.6-6S175,202.37,180.87,199Z"/><path class="cls-1" d="M180.87,199a21.43,21.43,0,0,0-7.35,7.69l14.93,8.62a21.36,21.36,0,0,0,3-10.27C191.45,198.34,186.7,195.63,180.87,199Z"/><path class="cls-2" d="M142.82,222.59c5.83-3.36,10.58-.66,10.59,6s-4.69,14.87-10.52,18.24-10.58.66-10.6-6S137,226,142.82,222.59Z"/><path class="cls-1" d="M142.82,222.59a21.51,21.51,0,0,0-7.35,7.69l14.93,8.62a21.32,21.32,0,0,0,3-10.27C153.4,221.93,148.65,219.22,142.82,222.59Z"/><path class="cls-2" d="M104.76,246.19c5.84-3.37,10.58-.67,10.6,6s-4.69,14.87-10.53,18.24-10.57.67-10.59-6S98.93,249.55,104.76,246.19Z"/><path class="cls-1" d="M104.76,246.19a21.38,21.38,0,0,0-7.34,7.68l14.93,8.62a21.32,21.32,0,0,0,3-10.27C115.34,245.52,110.6,242.82,104.76,246.19Z"/><polygon class="cls-4" points="71.37 183.64 71.37 242.97 0 201.77 0 142.44 71.37 183.64"/><polygon class="cls-2" points="214.34 100.48 71.37 183.64 0 142.44 142.97 59.28 214.34 100.48"/><polygon class="cls-5" points="71.37 242.97 71.37 183.64 214.34 100.48 214.34 159.81 71.37 242.97"/><path class="cls-6" d="M163.84,88.55c6.69,3.87,6.73,10.14.06,14s-17.5,3.87-24.2,0-6.74-10.15-.07-14S157.13,84.68,163.84,88.55Z"/><path class="cls-5" d="M163.84,88.55c-4-2.28-9.33-3.21-14.44-2.8v19.61c5.14.42,10.55-.5,14.5-2.79C170.57,98.69,170.53,92.42,163.84,88.55Z"/><path class="cls-6" d="M119.24,114.45c6.7,3.87,6.73,10.14.07,14s-17.51,3.87-24.2,0-6.75-10.15-.08-14S112.53,110.58,119.24,114.45Z"/><path class="cls-5" d="M119.24,114.45c-3.95-2.28-9.32-3.21-14.44-2.8v19.62c5.15.42,10.56-.51,14.51-2.8C126,124.59,125.94,118.32,119.24,114.45Z"/><path class="cls-6" d="M74.64,140.35c6.7,3.87,6.73,10.15.07,14s-17.5,3.88-24.2,0-6.74-10.15-.08-14S67.93,136.48,74.64,140.35Z"/><path class="cls-5" d="M74.64,140.35c-4-2.28-9.32-3.2-14.44-2.8v19.62c5.15.42,10.56-.5,14.51-2.8C81.37,150.5,81.34,144.22,74.64,140.35Z"/><polygon class="cls-1" points="71.37 124.37 71.37 183.7 0 142.49 0 83.16 71.37 124.37"/><polygon class="cls-2" points="214.34 41.2 71.37 124.37 0 83.16 142.97 0 214.34 41.2"/><polygon class="cls-7" points="71.37 183.7 71.37 124.37 214.34 41.2 214.34 100.53 71.37 183.7"/><path class="cls-8" d="M163.84,29.27c6.69,3.87,6.73,10.15.06,14s-17.5,3.87-24.2,0-6.74-10.15-.07-14S157.13,25.4,163.84,29.27Z"/><path class="cls-1" d="M163.84,29.27c-4-2.28-9.33-3.2-14.44-2.8V46.09c5.14.42,10.55-.51,14.5-2.8C170.57,39.42,170.53,33.14,163.84,29.27Z"/><path class="cls-9" d="M119.24,55.17c6.7,3.87,6.73,10.15.07,14s-17.51,3.88-24.2,0-6.75-10.15-.08-14S112.53,51.3,119.24,55.17Z"/><path class="cls-1" d="M119.24,55.17c-3.95-2.27-9.32-3.2-14.44-2.8V72c5.15.42,10.56-.5,14.51-2.8C126,65.32,125.94,59,119.24,55.17Z"/><path class="cls-10" d="M74.64,81.08c6.7,3.86,6.73,10.14.07,14s-17.5,3.88-24.2,0-6.74-10.15-.08-14S67.93,77.2,74.64,81.08Z"/><path class="cls-1" d="M74.64,81.08c-4-2.28-9.32-3.21-14.44-2.81V97.89c5.15.42,10.56-.5,14.51-2.8C81.37,91.22,81.34,84.94,74.64,81.08Z"/></g></g></svg>