<svg xmlns="http://www.w3.org/2000/svg" viewBox="0 0 320 243.52"><defs><style>.cls-1{fill:#4a6cb8;}.cls-2{fill:#00b0bc;}.cls-3{fill:#f6f3f7;}.cls-4{fill:#26bcc6;}.cls-5{fill:#42145f;}.cls-6{fill:#fff;}</style></defs><title>2012 car</title><g id="Layer_2" data-name="Layer 2"><g id="NatWest-longform_3-digitisation-desktop"><path class="cls-1" d="M202.68,242s8.75-5.07,11-6.33c3.68-2.06,6-6.46,6-12.86,0-12.59-8.81-27.91-19.76-34.23-5.56-3.21-10.57-3.46-14.2-1.33-2.39,1.4-11.64,6.71-11.64,6.71Z"/><path class="cls-2" d="M188.45,195.23c11,6.32,19.8,21.65,19.76,34.24s-8.94,17.65-19.89,11.33-19.8-21.65-19.77-34.23S177.5,188.91,188.45,195.23Z"/><path class="cls-3" d="M197.22,236.74a11.22,11.22,0,0,1-5.51-1.81c-8.91-5.14-16.41-18.12-16.38-28.34,0-6.35,2.65-7.3,4.22-7.3a11.24,11.24,0,0,1,5.51,1.81c8.91,5.14,16.41,18.12,16.38,28.35C201.42,235.79,198.78,236.74,197.22,236.74Z"/><path class="cls-1" d="M47.64,152.83s8.75-5.07,11-6.34c3.68-2.05,6-6.45,6.05-12.85,0-12.59-8.82-27.92-19.77-34.24-5.56-3.21-10.57-3.45-14.2-1.33-2.39,1.41-11.64,6.71-11.64,6.71Z"/><path class="cls-2" d="M33.41,106c11,6.32,19.8,21.65,19.76,34.23s-8.94,17.65-19.89,11.33S13.48,130,13.52,117.38,22.46,99.72,33.41,106Z"/><path class="cls-3" d="M42.18,147.55a11.36,11.36,0,0,1-5.51-1.81c-8.91-5.15-16.41-18.12-16.38-28.34,0-6.36,2.65-7.3,4.22-7.3A11.24,11.24,0,0,1,30,111.91c8.91,5.14,16.41,18.12,16.38,28.35C46.38,146.6,43.75,147.55,42.18,147.55Z"/><path class="cls-4" d="M310.11,150.22,220.58,60.84,145.3,17.33,92.11,9.52,74.77,0,15,34.16v15h0A31.21,31.21,0,0,0,6.46,70.5v8l-2,1.21A9.26,9.26,0,0,0,0,87.64V113l9.7,5.62c0-.42,0-.85,0-1.26,0-10.7,6-17.89,14.83-17.89a21.81,21.81,0,0,1,10.82,3.23c12.2,7.05,21.73,23.55,21.69,37.58a25,25,0,0,1-.59,5.4l108.34,62.75c0-.63-.06-1.26-.06-1.88,0-10.7,6-17.89,14.84-17.89a21.73,21.73,0,0,1,10.82,3.24c12.2,7,21.72,23.54,21.68,37.57a24.66,24.66,0,0,1-.7,5.93l4.57,2.65a40.49,40.49,0,0,0,40.58,0l54.37-31.42A18.29,18.29,0,0,0,320,190.83V174.05A33.66,33.66,0,0,0,310.11,150.22Z"/><polyline class="cls-5" points="252.62 206.32 290.29 192.61 313.05 171.68 293.39 196.89 252.62 206.32"/><path class="cls-3" d="M313.05,171.68l6.53-2.89a33.65,33.65,0,0,0-9.47-18.57L292.57,132.7,302,155.25a30,30,0,0,0,3.49,6.16Z"/><path class="cls-3" d="M209.9,178.94l17.1,3.65a29.47,29.47,0,0,1,18.67,12.9l7,10.83-26.09,6Z"/><path class="cls-1" d="M236.23,243.52a40.51,40.51,0,0,0,20.27-5.44l54.37-31.42A18.29,18.29,0,0,0,320,190.83V174.05a33.83,33.83,0,0,0-1.38-9.52l-25.23,32.36-66.86,15.46-5.9,28A40.46,40.46,0,0,0,236.23,243.52Z"/><path class="cls-2" d="M221.87,196.92,155.16,96.69,82.76,53.53,32.27,44.29,15,34.16v15h0A31.21,31.21,0,0,0,6.46,70.5v8l-2,1.21A9.26,9.26,0,0,0,0,87.64V113l9.7,5.62c0-.42,0-.85,0-1.26,0-10.7,6-17.89,14.83-17.89a21.81,21.81,0,0,1,10.82,3.23c12.2,7.05,21.73,23.55,21.69,37.58a25,25,0,0,1-.59,5.4l108.34,62.75c0-.63-.06-1.26-.06-1.88,0-10.7,6-17.89,14.84-17.89a21.73,21.73,0,0,1,10.82,3.24c12.2,7,21.72,23.54,21.68,37.57a24.66,24.66,0,0,1-.7,5.93l4.57,2.65a40.41,40.41,0,0,0,10.61,4.27v-30A27.86,27.86,0,0,0,221.87,196.92Z"/><polygon class="cls-6" points="158.47 97.51 220.18 63.69 272.66 116.08 199.09 158.54 158.47 97.51"/><polygon class="cls-6" points="38.83 43.14 92.57 11.91 138.42 18.65 82.34 51.11 38.83 43.14"/><polygon class="cls-6" points="108.84 71.76 81.94 55.72 40.4 48.12 49.46 80.7 108.84 114.89 108.84 71.76"/><polygon class="cls-6" points="153.53 98.41 117.69 77.04 117.69 119.99 186.66 159.69 186.66 148.19 153.53 98.41"/></g></g></svg>