<svg xmlns="http://www.w3.org/2000/svg" xmlns:xlink="http://www.w3.org/1999/xlink" viewBox="0 0 320 189.09"><defs><style>.cls-1{fill:none;}.cls-2{fill:url(#linear-gradient);}.cls-3{fill:#f6f3f7;}.cls-4{fill:#fff;}.cls-5{isolation:isolate;}.cls-6{fill:#516cb4;}.cls-7{fill:#00b0bc;}.cls-8{fill:#33c0c9;}.cls-9{clip-path:url(#clip-path);}.cls-10{fill:#4a6cb8;}</style><linearGradient id="linear-gradient" y1="96.34" x2="320" y2="96.34" gradientUnits="userSpaceOnUse"><stop offset="0" stop-color="#f6f3f7"/><stop offset="1" stop-color="#77488a"/></linearGradient><clipPath id="clip-path"><polygon class="cls-1" points="79 145.52 50.21 128.89 91.77 104.73 120.57 121.36 79 145.52"/></clipPath></defs><title>2007 card</title><g id="Layer_2" data-name="Layer 2"><g id="NatWest-longform_3-digitisation-desktop"><path class="cls-2" d="M317.5,72.42l-118-68.1a6.59,6.59,0,0,0-6,0L2.37,115.4,0,114.2v3.61a2.12,2.12,0,0,0,1.26,1.74l119.2,68.82a6.63,6.63,0,0,0,6,0L318.76,76.63A2.14,2.14,0,0,0,320,74.88V71.26Z"/><path class="cls-3" d="M0,114.2v3.61a2.12,2.12,0,0,0,1.26,1.74l119.2,68.82a6.33,6.33,0,0,0,3.23.71V87.32h-73L2.37,115.4Z"/><path class="cls-4" d="M318.74,69.54c1.67,1,1.68,2.53,0,3.49L126.47,184.78a6.63,6.63,0,0,1-6,0L1.26,116c-1.67-1-1.68-2.53,0-3.49L193.52.72a6.65,6.65,0,0,1,6,0Z"/><g class="cls-5"><polygon class="cls-3" points="146.31 62.13 71.28 105.74 57.56 97.81 132.59 54.21 146.31 62.13"/><polygon class="cls-3" points="271.31 57.56 99.11 157.42 85.39 149.49 257.59 49.64 271.31 57.56"/></g><path class="cls-6" d="M275.3,81.84c-.1,2-1.49,4.07-4.18,5.63-5.6,3.26-14.7,3.26-20.34,0s-5.67-8.52-.06-11.78a20.51,20.51,0,0,1,9.71-2.44c-.1,2.22,1.31,4.46,4.24,6.15A21.13,21.13,0,0,0,275.3,81.84Z"/><path class="cls-7" d="M285,67.62c5.63,3.25,5.67,8.53.07,11.78a20.58,20.58,0,0,1-9.72,2.44,21.13,21.13,0,0,1-10.63-2.44c-2.93-1.69-4.34-3.93-4.24-6.15.1-2,1.49-4.07,4.18-5.63C270.21,64.36,279.31,64.36,285,67.62Z"/><polygon class="cls-8" points="79 145.52 50.21 128.89 91.77 104.73 120.57 121.36 79 145.52"/><g class="cls-9"><rect class="cls-7" x="76.6" y="110.83" width="0.81" height="38.46" transform="translate(-74.14 131.08) rotate(-59.76)"/><rect class="cls-7" x="92.27" y="100.4" width="0.81" height="38.46" transform="translate(-57.35 139.44) rotate(-59.76)"/><rect class="cls-7" x="55.47" y="129.51" width="15.4" height="0.81" transform="translate(-56.73 49.34) rotate(-30.17)"/><rect class="cls-7" x="62.68" y="133.41" width="15.4" height="0.81" transform="translate(-57.72 53.49) rotate(-30.17)"/><rect class="cls-7" x="69.51" y="137.55" width="15.4" height="0.81" transform="translate(-58.87 57.48) rotate(-30.17)"/><rect class="cls-7" x="85.67" y="111.95" width="15.4" height="0.81" transform="translate(-43.82 62.14) rotate(-30.17)"/><rect class="cls-7" x="92.88" y="115.86" width="15.4" height="0.81" transform="translate(-44.8 66.29) rotate(-30.17)"/><rect class="cls-7" x="99.71" y="119.99" width="15.4" height="0.81" transform="translate(-45.96 70.29) rotate(-30.17)"/></g><path class="cls-4" d="M207.1,52.72c-2-7.29-13.71-7.89-13.83-7.9l0-.81c.5,0,12.41.64,14.58,8.5Z"/><path class="cls-4" d="M216.33,52.07c-2.45-11.83-21.8-12.59-22-12.6l0-.81a42.81,42.81,0,0,1,10.35,1.87c7,2.26,11.35,6.2,12.42,11.37Z"/><path class="cls-4" d="M224.88,51.48c-3.58-16.88-29.3-17.9-29.56-17.91l0-.81c.27,0,26.62,1.05,30.34,18.55Z"/><path class="cls-4" d="M233.43,50.91c-5.87-22.77-36-23-36.26-23v-.82c.31,0,31,.27,37,23.66Z"/><rect class="cls-10" x="102.95" y="136.31" width="111.22" height="0.81" transform="translate(-47.2 98.03) rotate(-30.12)"/><rect class="cls-10" x="109.83" y="144.78" width="91.69" height="0.81" transform="translate(-51.84 97.72) rotate(-30.12)"/><path class="cls-6" d="M54.86,107.18c5.64,3.25,5.67,8.52.07,11.78a20.43,20.43,0,0,1-9.72,2.43A21,21,0,0,1,34.59,119c-2.93-1.69-4.34-3.93-4.24-6.15.09-2,1.48-4.07,4.17-5.63C40.12,103.92,49.23,103.92,54.86,107.18Z"/></g></g></svg>