<svg xmlns="http://www.w3.org/2000/svg" xmlns:xlink="http://www.w3.org/1999/xlink" viewBox="0 0 257.61 350"><defs><style>.cls-1{fill:#00b0bc;}.cls-2{fill:#4a6cb8;}.cls-3{fill:#fff;}.cls-4{fill:#33c0c9;}.cls-5{fill:#38c2c9;}.cls-6{fill:#516cb4;}.cls-7{fill:url(#linear-gradient);}.cls-8{fill:#f6f3f7;}</style><linearGradient id="linear-gradient" y1="288.9" x2="257.61" y2="288.9" gradientUnits="userSpaceOnUse"><stop offset="0" stop-color="#f6f3f7"/><stop offset="1" stop-color="#77488a"/></linearGradient></defs><title>2000 clothes</title><g id="Layer_2" data-name="Layer 2"><g id="NatWest-longform_3-digitisation-desktop"><path class="cls-1" d="M220.48,81a.53.53,0,0,1-.24-.06L160.49,46.4a.46.46,0,0,1-.22-.51.48.48,0,0,1,.42-.36l29.88-2.1a.49.49,0,0,1,.39.17l29.88,36.6a.47.47,0,0,1,0,.6A.44.44,0,0,1,220.48,81Zm-58.2-34.6L218.5,78.82,190.39,44.38Z"/><path class="cls-1" d="M191.07,43.9h-.94V40.19a.48.48,0,0,1,.23-.4.47.47,0,0,1,.46,0l.43.23a2.84,2.84,0,0,0,2,.23A2,2,0,0,0,194.4,39c1-2.36-1-7.23-4.43-9a2.34,2.34,0,0,0-2.33-.13,2.94,2.94,0,0,0-1.09,2.5h-.93a3.91,3.91,0,0,1,1.52-3.3,3.21,3.21,0,0,1,3.24.09c3.9,2,6.05,7.41,4.88,10.17a2.92,2.92,0,0,1-1.7,1.74,3.48,3.48,0,0,1-2.49-.17Z"/><path class="cls-2" d="M213.64,90.35a50.24,50.24,0,0,0-4.38,20.54c0,11.69,4,30.69,4.23,31.69l-22.56-13-22.56-13c.22-.75,4.37-15,4.4-26.71s-4-24.83-4.25-25.52c9.17-1.53,8.42-19.06,8.38-20l5.24-.36c0,14.89,4,26,9,28.82s9-3.2,9-18.09l5.29,6.48C205.36,62,204.51,78.26,213.64,90.35Z"/><path class="cls-1" d="M207.62,88.39a.44.44,0,0,1-.24-.07L147.63,53.83a.47.47,0,0,1,.2-.87l29.88-2.1a.46.46,0,0,1,.39.17L208,87.62a.47.47,0,0,1,0,.6A.46.46,0,0,1,207.62,88.39Zm-58.2-34.61,56.22,32.46L177.53,51.81Z"/><path class="cls-1" d="M178.21,51.32h-.94v-3.7a.46.46,0,0,1,.23-.4.47.47,0,0,1,.46,0l.43.23a2.88,2.88,0,0,0,2,.24,2.07,2.07,0,0,0,1.15-1.23c1-2.36-1-7.23-4.43-9a2.36,2.36,0,0,0-2.33-.13,3,3,0,0,0-1.09,2.5h-.93a3.88,3.88,0,0,1,1.52-3.29,3.2,3.2,0,0,1,3.24.08c3.9,2,6,7.41,4.88,10.17a3,3,0,0,1-1.7,1.75,3.53,3.53,0,0,1-2.49-.18Z"/><path class="cls-3" d="M200.78,97.78a50.11,50.11,0,0,0-4.38,20.53c0,11.69,4,30.69,4.23,31.69l-22.56-13-22.56-13c.22-.75,4.37-15,4.4-26.71s-4-24.82-4.25-25.51c9.17-1.53,8.42-19.07,8.38-20l5.29-.4c0,14.89,4,26,8.9,28.86s9-3.21,9-18.1l5.29,6.5C192.5,69.48,191.65,85.68,200.78,97.78Z"/><path class="cls-1" d="M186.7,100.58a.53.53,0,0,1-.24-.06L126.71,66a.47.47,0,0,1,.2-.87l29.88-2.1a.46.46,0,0,1,.39.17l29.88,36.6a.47.47,0,0,1,0,.6A.48.48,0,0,1,186.7,100.58ZM128.5,66l56.22,32.46L156.61,64Z"/><path class="cls-1" d="M157.28,63.52h-.93V59.81a.47.47,0,0,1,.23-.4.45.45,0,0,1,.46,0l.43.22a2.76,2.76,0,0,0,2,.24,2.07,2.07,0,0,0,1.15-1.23c1-2.36-1-7.22-4.44-9a2.37,2.37,0,0,0-2.32-.13,3,3,0,0,0-1.09,2.5h-.93a3.89,3.89,0,0,1,1.52-3.29,3.21,3.21,0,0,1,3.24.09c3.9,2,6.05,7.41,4.88,10.17a3,3,0,0,1-1.7,1.74,3.57,3.57,0,0,1-2.5-.17Z"/><path class="cls-2" d="M188.39,101.89c-2.62-6.41-5.27-10-13.54-18.08L168.28,77c0,7.06-5.32,8.39-11.46,4.85s-10.79-11-10.77-18.1l-8.62.24c-10.21-.14-17,2.29-21.45,7.76L100.64,91.3l9.74,8,13.76-15.69L124,146.82l32.94,19,24.68,14.25-.1-65.59,7.42,18.72,11.67-4.78Z"/><path class="cls-2" d="M197.94,126.88c2.84.41,3.71,2.56,2,4.81a9.79,9.79,0,0,1-8.29,3.33c-2.82-.4-3.71-2.55-2-4.8A9.79,9.79,0,0,1,197.94,126.88Z"/><path class="cls-4" d="M103.83,90.42c-2.82-.52-4.33,1.25-3.39,3.93a9.83,9.83,0,0,0,6.8,5.8c2.81.51,4.33-1.25,3.39-3.94A9.82,9.82,0,0,0,103.83,90.42Z"/><path class="cls-1" d="M169.28,110.67a.46.46,0,0,1-.23-.06l-59.76-34.5a.49.49,0,0,1-.22-.51.47.47,0,0,1,.42-.36l29.88-2.1a.45.45,0,0,1,.39.17l29.88,36.6a.47.47,0,0,1,0,.59A.49.49,0,0,1,169.28,110.67Zm-58.2-34.61,56.23,32.46L139.19,74.09Z"/><path class="cls-1" d="M139.87,73.6h-.94V69.9a.46.46,0,0,1,.23-.4.47.47,0,0,1,.46,0l.43.23a2.89,2.89,0,0,0,2,.24,2.07,2.07,0,0,0,1.15-1.23c1-2.36-1-7.23-4.43-9a2.36,2.36,0,0,0-2.33-.13,3,3,0,0,0-1.09,2.5h-.93A3.86,3.86,0,0,1,136,58.83a3.19,3.19,0,0,1,3.23.08c3.9,2,6.06,7.42,4.88,10.18a3,3,0,0,1-1.7,1.74,3.54,3.54,0,0,1-2.49-.17Z"/><path class="cls-4" d="M172.72,116.58c-.94-9.78-7-14.66-15.29-22.68l-6.56-6.83c0,7.06-5.33,8.38-11.47,4.83s-10.79-10.91-10.77-18l-11.25.16c-10.78.56-18.18,3.9-20,13.84l-14.29,73.4,10.67,1.29,13-66-.19,60.3,32.95,19,24.67,14.25-.09-58.32,5.19,70.5,10.75-.44S175.21,142.54,172.72,116.58Z"/><path class="cls-5" d="M178.36,199.79c2.13,1.17,2.19,3.14.12,4.4a8.39,8.39,0,0,1-7.59.18c-2.13-1.17-2.19-3.14-.13-4.4A8.38,8.38,0,0,1,178.36,199.79Z"/><path class="cls-5" d="M92.43,160.35c1.94,1.46,1.71,3.42-.51,4.37a8.35,8.35,0,0,1-7.54-.91c-1.94-1.46-1.72-3.42.51-4.37A8.35,8.35,0,0,1,92.43,160.35Z"/><path class="cls-1" d="M139.93,127.64a.46.46,0,0,1-.23-.06L80,93.08a.46.46,0,0,1,.2-.87L110,90.11a.48.48,0,0,1,.4.17l29.87,36.6a.46.46,0,0,1-.36.76ZM81.73,93,138,125.5,109.84,91.06Z"/><path class="cls-1" d="M110.52,90.58h-.93V86.87a.46.46,0,0,1,.68-.41l.44.23a2.81,2.81,0,0,0,2,.23,2,2,0,0,0,1.15-1.22c1-2.36-1-7.23-4.43-9a2.37,2.37,0,0,0-2.32-.13,2.94,2.94,0,0,0-1.09,2.5h-.94a3.89,3.89,0,0,1,1.53-3.29,3.21,3.21,0,0,1,3.24.09c3.9,2,6,7.41,4.87,10.17A2.91,2.91,0,0,1,113,87.8a3.51,3.51,0,0,1-2.5-.17Z"/><path class="cls-3" d="M133.1,137a49.87,49.87,0,0,0-4.38,20.54c0,11.69,4,30.69,4.23,31.69l-22.56-13-22.56-13c.22-.75,4.36-15,4.4-26.71S88.19,111.67,88,111c9.17-1.53,8.42-19,8.38-19.9l5.29-.4c0,14.89,3.95,25.92,8.9,28.77s9-3.06,9-18l5.29,6.51C124.81,108.88,124,124.93,133.1,137Z"/><path class="cls-1" d="M103.92,148.63a.46.46,0,0,1-.23-.06l-59.75-34.5a.47.47,0,0,1,.2-.87L74,111.1a.51.51,0,0,1,.4.17l29.88,36.6a.47.47,0,0,1,0,.6A.45.45,0,0,1,103.92,148.63ZM45.73,114,102,146.49,73.84,112.05Z"/><path class="cls-1" d="M74.51,111.57h-.93v-3.71a.46.46,0,0,1,.68-.41l.44.23a2.81,2.81,0,0,0,2,.23,2,2,0,0,0,1.16-1.22c1-2.36-1-7.23-4.44-9a2.32,2.32,0,0,0-2.32-.13,2.94,2.94,0,0,0-1.09,2.5h-.94a3.92,3.92,0,0,1,1.53-3.3,3.21,3.21,0,0,1,3.24.09c3.9,2,6,7.41,4.88,10.17a2.92,2.92,0,0,1-1.7,1.74,3.51,3.51,0,0,1-2.5-.17Z"/><path class="cls-4" d="M105.62,149.94c-2.62-6.41-5.27-10.05-13.54-18.08L85.51,125c0,7.05-5.33,8.38-11.46,4.84s-10.8-10.91-10.78-18l-8.62.1c-10.21-.14-17,2.29-21.44,7.77L17.87,139.35l9.74,8,13.76-15.69-.2,63.19,33,19,24.67,14.24-.09-65.59,7.42,18.73,11.67-4.79Z"/><path class="cls-5" d="M115.17,174.93c2.83.41,3.71,2.56,2,4.81a9.81,9.81,0,0,1-8.28,3.34c-2.82-.41-3.71-2.56-2-4.81A9.79,9.79,0,0,1,115.17,174.93Z"/><path class="cls-4" d="M21.06,138.47c-2.82-.51-4.33,1.25-3.39,3.94a9.78,9.78,0,0,0,6.8,5.79c2.81.51,4.33-1.25,3.38-3.94A9.8,9.8,0,0,0,21.06,138.47Z"/><path class="cls-1" d="M89.61,157a.46.46,0,0,1-.23-.06l-59.75-34.5a.48.48,0,0,1-.23-.51.47.47,0,0,1,.43-.36l29.87-2.1a.48.48,0,0,1,.4.17L90,156.19a.47.47,0,0,1,0,.6A.5.5,0,0,1,89.61,157Zm-58.19-34.6,56.22,32.46L59.52,120.37Z"/><path class="cls-1" d="M60.2,119.89h-.93v-3.71a.46.46,0,0,1,.22-.4.47.47,0,0,1,.46,0l.44.22a2.73,2.73,0,0,0,2,.24A2,2,0,0,0,63.53,115c1-2.36-1-7.22-4.43-9a2.37,2.37,0,0,0-2.32-.13,2.94,2.94,0,0,0-1.09,2.5h-.94a3.89,3.89,0,0,1,1.53-3.29,3.21,3.21,0,0,1,3.24.09c3.9,2,6,7.41,4.87,10.17a2.91,2.91,0,0,1-1.69,1.74,3.56,3.56,0,0,1-2.5-.17Z"/><path class="cls-2" d="M91.31,158.26c-2.62-6.41-5.27-10-13.54-18.08l-6.57-7.12c0,7.05-5.33,8.67-11.46,5.13s-10.8-10.91-10.78-18l-8.62.11c-10.21-.14-17,2.29-21.44,7.76L3.52,147.73l9.7,8.08L27.05,140l-.19,63.18,33,19,24.67,14.24-.09-65.59,7.41,18.81L103.54,185Z"/><path class="cls-2" d="M100.84,183.21c2.83.41,3.7,2.56,2,4.81a9.79,9.79,0,0,1-8.28,3.33c-2.83-.4-3.71-2.55-2-4.8A9.81,9.81,0,0,1,100.84,183.21Z"/><path class="cls-2" d="M6.28,145.48c-2.42-.44-3.72,1.08-2.91,3.39a8.41,8.41,0,0,0,5.84,5c2.42.44,3.72-1.07,2.91-3.38A8.42,8.42,0,0,0,6.28,145.48Z"/><path class="cls-1" d="M81.33,338.69a11.59,11.59,0,0,1-5.26,9.1l-1.29,1.77s-1.73-1-2.32-1.33a3.67,3.67,0,0,1-1.68-3.45A11.6,11.6,0,0,1,76,335.67a3.68,3.68,0,0,1,3.8-.33l2.53,1.44Z"/><path class="cls-6" d="M78.64,337.16c2.91-1.68,5.28-.33,5.29,3a11.59,11.59,0,0,1-5.26,9.1c-2.91,1.68-5.28.33-5.29-3A11.59,11.59,0,0,1,78.64,337.16Z"/><path class="cls-1" d="M245.48,243.45a11.58,11.58,0,0,1-5.26,9.1l-1.29,1.77s-1.73-1-2.32-1.32a3.68,3.68,0,0,1-1.68-3.46,11.55,11.55,0,0,1,5.26-9.1,3.66,3.66,0,0,1,3.8-.34l2.53,1.44Z"/><path class="cls-6" d="M242.79,241.92c2.91-1.68,5.28-.33,5.29,3a11.59,11.59,0,0,1-5.26,9.1c-2.91,1.68-5.28.33-5.29-3A11.57,11.57,0,0,1,242.79,241.92Z"/><polygon class="cls-7" points="257.61 234.69 63.35 347.58 0 311 0 306.54 257.61 230.22 257.61 234.69"/><polygon class="cls-3" points="257.61 230.22 63.35 343.11 0 306.54 194.26 193.65 257.61 230.22"/><polygon class="cls-8" points="63.35 347.58 63.35 343.11 0 306.54 0 311 63.35 347.58"/><path class="cls-3" d="M65.08,340.56h-.94v-177a45.84,45.84,0,0,0-22.82-39.57L19.88,111.55A9.07,9.07,0,0,0,6.27,119.4V306.55H5.34V119.4a10,10,0,0,1,15-8.66l21.44,12.39a46.79,46.79,0,0,1,23.29,40.38Z"/><path class="cls-3" d="M253.43,231.18h-.93v-177a45.86,45.86,0,0,0-22.83-39.57L208.24,2.17A9.07,9.07,0,0,0,194.62,10V197.17h-.93V10a10,10,0,0,1,15-8.66l21.44,12.4a46.76,46.76,0,0,1,23.29,40.37Z"/><rect class="cls-3" x="19.83" y="64.32" width="217.77" height="0.93" transform="translate(-15.13 73.44) rotate(-30.16)"/><path class="cls-1" d="M76.05,109a4,4,0,0,1-1.79-.45l.44-.82a2.81,2.81,0,0,0,2,.23,2,2,0,0,0,1.16-1.22c1-2.36-1-7.23-4.44-9a2.32,2.32,0,0,0-2.35-.12l-.51-.78a3.16,3.16,0,0,1,3.28.06c3.9,2,6,7.41,4.88,10.17a2.92,2.92,0,0,1-1.7,1.74A2.76,2.76,0,0,1,76.05,109Z"/><path class="cls-1" d="M141.41,71a4.14,4.14,0,0,1-1.79-.45l.43-.83a2.89,2.89,0,0,0,2,.24,2.07,2.07,0,0,0,1.15-1.23c1-2.36-1-7.23-4.43-9a2.34,2.34,0,0,0-2.35-.11l-.52-.78a3.18,3.18,0,0,1,3.28,0c3.9,2,6.06,7.42,4.88,10.18a2.77,2.77,0,0,1-2.65,1.9Z"/><path class="cls-1" d="M61.74,117.27a4,4,0,0,1-1.79-.45l.44-.83a2.73,2.73,0,0,0,2,.24A2,2,0,0,0,63.53,115c1-2.36-1-7.22-4.43-9a2.34,2.34,0,0,0-2.35-.11l-.51-.78a3.16,3.16,0,0,1,3.28.06c3.9,2,6,7.41,4.87,10.17a2.91,2.91,0,0,1-1.69,1.74A2.76,2.76,0,0,1,61.74,117.27Z"/><path class="cls-1" d="M158.82,60.9a4.08,4.08,0,0,1-1.78-.45l.43-.83a2.76,2.76,0,0,0,2,.24,2.07,2.07,0,0,0,1.15-1.23c1-2.36-1-7.22-4.44-9a2.34,2.34,0,0,0-2.35-.11l-.51-.78a3.16,3.16,0,0,1,3.28.06c3.9,2,6.05,7.41,4.88,10.17a3,3,0,0,1-1.7,1.74A2.73,2.73,0,0,1,158.82,60.9Z"/><path class="cls-1" d="M179.74,48.71a4.08,4.08,0,0,1-1.78-.45l.43-.83a2.88,2.88,0,0,0,2,.24,2.07,2.07,0,0,0,1.15-1.23c1-2.36-1-7.23-4.43-9a2.31,2.31,0,0,0-2.36-.11l-.51-.78a3.16,3.16,0,0,1,3.28.05c3.9,2,6,7.41,4.88,10.17a2.76,2.76,0,0,1-2.66,1.91Z"/><path class="cls-1" d="M192.6,41.28a3.94,3.94,0,0,1-1.78-.45l.43-.82a2.84,2.84,0,0,0,2,.23A2,2,0,0,0,194.4,39c1-2.36-1-7.23-4.43-9a2.34,2.34,0,0,0-2.36-.12l-.51-.78a3.16,3.16,0,0,1,3.28.06c3.9,2,6.05,7.41,4.88,10.17a2.92,2.92,0,0,1-1.7,1.74A2.73,2.73,0,0,1,192.6,41.28Z"/><path class="cls-1" d="M112.06,88a4,4,0,0,1-1.79-.45l.44-.82a2.81,2.81,0,0,0,2,.23,2,2,0,0,0,1.15-1.22c1-2.36-1-7.23-4.43-9a2.34,2.34,0,0,0-2.35-.11l-.51-.78a3.16,3.16,0,0,1,3.28.06c3.9,2,6,7.41,4.87,10.17A2.91,2.91,0,0,1,113,87.8,2.76,2.76,0,0,1,112.06,88Z"/></g></g></svg>