<svg xmlns="http://www.w3.org/2000/svg" xmlns:xlink="http://www.w3.org/1999/xlink" viewBox="0 0 320 266.92"><defs><style>.cls-1{fill:#fff;}.cls-2{fill:#f6f3f7;}.cls-3{fill:url(#linear-gradient);}</style><linearGradient id="linear-gradient" x1="56.3" y1="108.35" x2="469.54" y2="320.55" gradientUnits="userSpaceOnUse"><stop offset="0" stop-color="#f6f3f7"/><stop offset="1" stop-color="#77488a"/></linearGradient></defs><title>200 cloud</title><g id="Layer_2" data-name="Layer 2"><g id="NatWest-longform_3-digitisation-desktop"><path class="cls-1" d="M43.27,152l28.54-16.48,0-14.53C71.66,79.79,100.63,29.6,136.49,8.9c18-10.39,34.33-11.37,46.13-4.55h0l39.12,21.89-21.2,7A74.18,74.18,0,0,1,201.62,46l0,17L223.45,50.5c16.83-9.72,31-8.8,42.38-2.61C274.68,52.68,301,67.48,301,67.48L39.7,266.92,0,244.73v-2.52C-.1,206.24,12,170.07,43.27,152Z"/><path class="cls-2" d="M161,106.86,111.5,157.72l-39.69-22.2,0-14.53c0-19,6.12-40,16.3-59.08Z"/><path class="cls-2" d="M0,244.73v-2.52C0,223.15,3.31,204,11.15,187.58l47.5,26.89,5.7,33.64L39.7,266.92Z"/><path class="cls-3" d="M176.18,31.1C140.32,51.8,111.35,102,111.46,143.19l0,14.53L83,174.2c-31.3,18.06-43.37,54.24-43.27,90.2v2.52L320,105.09c-.1-36-25.56-50.47-56.86-32.4L241.36,85.27l-.05-17C241.2,27,212,10.4,176.18,31.1Z"/></g></g></svg>