<svg xmlns="http://www.w3.org/2000/svg" xmlns:xlink="http://www.w3.org/1999/xlink" viewBox="0 0 248.79 320"><defs><style>.cls-1{fill:none;}.cls-2{fill:url(#linear-gradient);}.cls-3{fill:#fff;}.cls-4{fill:#f6f3f7;}.cls-5{clip-path:url(#clip-path);}.cls-6{clip-path:url(#clip-path-2);}</style><linearGradient id="linear-gradient" x1="40.45" y1="101.66" x2="208.34" y2="218.34" gradientUnits="userSpaceOnUse"><stop offset="0" stop-color="#f6f3f7"/><stop offset="1" stop-color="#805592"/></linearGradient><clipPath id="clip-path"><path class="cls-1" d="M124,17.06C55.29,56.73-.22,152.88,0,231.82S56.1,342.6,124.8,302.94,249,167.13,248.79,88.18,192.69-22.6,124,17.06Zm34.08,161.73c-17.71,30.68-41.32,56-64.77,69.58C79.44,256.37,71.18,257,69,257c-.4,0-.71,0-1,0-1.66-2.36-5-10.15-5-25.32-.08-26.84,10-59.8,27.7-90.43s41.33-56,64.78-69.58c13.86-8,22.11-8.62,24.31-8.62.4,0,.72,0,1,0,1.66,2.36,5,10.14,5,25.32C185.86,115.2,175.76,148.16,158.07,178.79Z"/></clipPath><clipPath id="clip-path-2"><path class="cls-1" d="M214,95c0,22.09-10,53.15-27.7,83.78s-41.33,56-64.78,69.58c-1.86,1.07-3.6,2-5.25,2.83C89.06,265.5,74.62,265.79,68,257c.25,0,.56,0,1,0,2.19,0,10.35-.61,24-8.46h0l.29-.16c.81-.47,1.63-1,2.45-1.46l.71-.45c.6-.37,1.19-.74,1.79-1.13l.75-.49,1.83-1.22.63-.44c.73-.51,1.47-1,2.2-1.56l.22-.15q3.91-2.85,7.78-6.07l0,0c.86-.72,1.72-1.46,2.57-2.2h0c16.11-14,31.41-32.91,43.81-54.39,17.32-30,27.35-62.21,27.69-88.73h0c0-.57,0-1.14,0-1.7,0-.87,0-1.72,0-2.54v-.14c0-.79-.06-1.56-.1-2.31,0-.07,0-.13,0-.2q-.06-1.1-.15-2.13c0-.07,0-.14,0-.21-.06-.69-.12-1.35-.19-2a1.23,1.23,0,0,1,0-.2c-.08-.64-.16-1.26-.24-1.85a1.11,1.11,0,0,1,0-.17c-.09-.61-.18-1.19-.28-1.76l0-.11c-.1-.57-.2-1.13-.31-1.66v0c-.12-.55-.23-1.07-.35-1.58A26.32,26.32,0,0,0,180.77,63c-.25,0-.57,0-1,0C179.8,63,215.12,58.77,214,95ZM28.24,231.82C28,152.88,83.53,56.73,152.23,17.06,166.69,8.71,180.58,3.54,193.51,1.3c-19.88-3.91-43.8.91-69.52,15.76C55.29,56.73-.22,152.88,0,231.82c.18,62.32,35,95.27,83.51,86.88C50.3,312.15,28.38,281.2,28.24,231.82Z"/></clipPath></defs><title>2018 lifebouy</title><g id="Layer_2" data-name="Layer 2"><g id="NatWest-longform_3-digitisation-desktop"><path class="cls-2" d="M124,17.06C55.29,56.73-.22,152.88,0,231.82S56.1,342.6,124.8,302.94,249,167.13,248.79,88.18,192.69-22.6,124,17.06Zm34.08,161.73c-17.71,30.68-41.32,56-64.77,69.58C79.44,256.37,71.18,257,69,257c-.4,0-.71,0-1,0-1.66-2.36-5-10.15-5-25.32-.08-26.84,10-59.8,27.7-90.43s41.33-56,64.78-69.58c13.86-8,22.11-8.62,24.31-8.62.4,0,.72,0,1,0,1.66,2.36,5,10.14,5,25.32C185.86,115.2,175.76,148.16,158.07,178.79Z"/><path class="cls-3" d="M179.8,63c.4,0,.72,0,1,0A26.32,26.32,0,0,1,184,71.46c.12.51.23,1,.35,1.58v0c.11.53.21,1.09.31,1.66l0,.11c.1.57.19,1.15.28,1.76a1.11,1.11,0,0,0,0,.17c.08.59.16,1.21.24,1.85a1.23,1.23,0,0,0,0,.2c.07.64.13,1.3.19,2,0,.07,0,.14,0,.21q.09,1,.15,2.13c0,.07,0,.13,0,.2,0,.75.07,1.52.1,2.31v.14c0,.82,0,1.67,0,2.54,0,.56,0,1.13,0,1.7h0c-.34,26.52-10.37,58.74-27.69,88.73-12.4,21.48-27.7,40.35-43.81,54.39h0c-.85.74-1.71,1.48-2.57,2.2l0,0q-3.87,3.22-7.78,6.07l-.22.15c-.73.53-1.47,1-2.2,1.56l-.63.44L99,244.84l-.75.49c-.6.39-1.19.76-1.79,1.13l-.71.45c-.82.5-1.64,1-2.45,1.46l-.29.16h0C79.33,256.38,71.17,257,69,257c-.4,0-.71,0-1,0,6.6,8.83,21,8.54,48.27-5.76,1.65-.83,3.39-1.76,5.25-2.83,23.45-13.54,47.06-38.9,64.78-69.58S214,117.1,214,95C215.12,58.77,179.8,63,179.8,63Z"/><path class="cls-4" d="M28.24,231.82C28,152.88,83.53,56.73,152.23,17.06,166.69,8.71,180.58,3.54,193.51,1.3c-19.88-3.91-43.8.91-69.52,15.76C55.29,56.73-.22,152.88,0,231.82c.18,62.32,35,95.27,83.51,86.88C50.3,312.15,28.38,281.2,28.24,231.82Z"/></g></g></svg>