<?xml version="1.0" encoding="utf-8"?>
<!-- Generator: Adobe Illustrator 23.0.4, SVG Export Plug-In . SVG Version: 6.00 Build 0)  -->
<svg version="1.1" id="Layer_1" xmlns="http://www.w3.org/2000/svg" xmlns:xlink="http://www.w3.org/1999/xlink" x="0px" y="0px"
	 viewBox="0 0 248.8 320" style="enable-background:new 0 0 248.8 320;" xml:space="preserve">
<style type="text/css">
	.st0{fill:url(#SVGID_1_);}
	.st1{fill:#FFFFFF;}
	.st2{fill:#F5F3F7;}
	.st3{clip-path:url(#SVGID_3_);}
	.st4{fill:#38C2C9;}
	.st5{clip-path:url(#SVGID_5_);}
	.st6{fill:#06B3BB;}
</style>
<title>2018 lifebouy</title>
<g>
	<linearGradient id="SVGID_1_" gradientUnits="userSpaceOnUse" x1="40.4488" y1="101.6565" x2="208.3408" y2="218.3445">
		<stop  offset="0" style="stop-color:#F5F3F7"/>
		<stop  offset="1" style="stop-color:#7B5B8F"/>
	</linearGradient>
	<path class="st0" d="M124,17.1C55.3,56.7-0.2,152.9,0,231.8c0.2,78.9,56.1,110.8,124.8,71.1S249,167.1,248.8,88.2
		C248.6,9.2,192.7-22.6,124,17.1z M158.1,178.8c-17.7,30.7-41.3,56-64.8,69.6c-13.9,8-22.1,8.6-24.3,8.6c-0.4,0-0.7,0-1,0
		c-1.7-2.4-5-10.1-5-25.3c-0.1-26.8,10-59.8,27.7-90.4c17.7-30.7,41.3-56,64.8-69.6c13.9-8,22.1-8.6,24.3-8.6c0.4,0,0.7,0,1,0
		c1.7,2.4,5,10.1,5,25.3C185.9,115.2,175.8,148.2,158.1,178.8z"/>
	<g>
		<path class="st1" d="M179.8,63c0.4,0,0.7,0,1,0c0.9,1.2,2.2,3.9,3.3,8.4c0.1,0.5,0.2,1,0.3,1.6c0,0,0,0,0,0.1
			c0.1,0.5,0.2,1.1,0.3,1.7c0,0,0,0.1,0,0.1c0.1,0.6,0.2,1.1,0.3,1.8c0,0.1,0,0.1,0,0.2c0.1,0.6,0.2,1.2,0.2,1.9c0,0.1,0,0.1,0,0.2
			c0.1,0.6,0.1,1.3,0.2,2c0,0.1,0,0.1,0,0.2c0.1,0.7,0.1,1.4,0.1,2.1c0,0.1,0,0.1,0,0.2c0,0.8,0.1,1.5,0.1,2.3c0,0,0,0.1,0,0.1
			c0,0.8,0,1.7,0,2.5c0,0.6,0,1.1,0,1.7l0,0c-0.3,26.5-10.4,58.7-27.7,88.7c-12.4,21.5-27.7,40.4-43.8,54.4v0
			c-0.9,0.7-1.7,1.5-2.6,2.2c0,0,0,0,0,0c-2.6,2.2-5.2,4.2-7.8,6.1c-0.1,0.1-0.1,0.1-0.2,0.2c-0.7,0.5-1.5,1.1-2.2,1.6
			c-0.2,0.1-0.4,0.3-0.6,0.4c-0.6,0.4-1.2,0.8-1.8,1.2c-0.3,0.2-0.5,0.3-0.8,0.5c-0.6,0.4-1.2,0.8-1.8,1.1c-0.2,0.1-0.5,0.3-0.7,0.4
			c-0.8,0.5-1.6,1-2.5,1.5c-0.1,0.1-0.2,0.1-0.3,0.2v0c-13.7,7.8-21.8,8.5-24,8.5c-0.4,0-0.7,0-1,0c6.6,8.8,21,8.5,48.3-5.8
			c1.7-0.8,3.4-1.8,5.3-2.8c23.5-13.5,47.1-38.9,64.8-69.6C204,148.2,214,117.1,214,95C215.1,58.8,179.8,63,179.8,63z"/>
		<path class="st2" d="M28.2,231.8C28,152.9,83.5,56.7,152.2,17.1c14.5-8.4,28.4-13.5,41.3-15.8c-19.9-3.9-43.8,0.9-69.5,15.8
			C55.3,56.7-0.2,152.9,0,231.8c0.2,62.3,35,95.3,83.5,86.9C50.3,312.2,28.4,281.2,28.2,231.8z"/>
	</g>
	<g>
		<defs>
			<path id="SVGID_2_" d="M124,17.1C55.3,56.7-0.2,152.9,0,231.8c0.2,78.9,56.1,110.8,124.8,71.1S249,167.1,248.8,88.2
				C248.6,9.2,192.7-22.6,124,17.1z M158.1,178.8c-17.7,30.7-41.3,56-64.8,69.6c-13.9,8-22.1,8.6-24.3,8.6c-0.4,0-0.7,0-1,0
				c-1.7-2.4-5-10.1-5-25.3c-0.1-26.8,10-59.8,27.7-90.4c17.7-30.7,41.3-56,64.8-69.6c13.9-8,22.1-8.6,24.3-8.6c0.4,0,0.7,0,1,0
				c1.7,2.4,5,10.1,5,25.3C185.9,115.2,175.8,148.2,158.1,178.8z"/>
		</defs>
		<clipPath id="SVGID_3_">
			<use xlink:href="#SVGID_2_"  style="overflow:visible;"/>
		</clipPath>
		<g class="st3">
			<path class="st4" d="M151.8,99.6H133V59.9c0-19-10.1-36.9-26.4-46.7l-16.6-10l9.7-16.1l16.6,10c21.9,13.2,35.5,37.2,35.5,62.8
				V99.6z"/>
			<path class="st4" d="M148.4,312.8h-18.8V295c0-22.5-13.2-43.2-33.7-52.6l-13.6-6.3l7.8-17l13.6,6.3
				c27.1,12.4,44.6,39.8,44.6,69.6V312.8z"/>
			<path class="st4" d="M208,159.1c-14.3,0-28.7-4.1-41.2-12.3l10.3-15.7c18.8,12.3,43,12.3,61.8,0l21.8-14.3l10.3,15.7l-21.8,14.3
				C236.7,155,222.3,159.1,208,159.1z"/>
			<path class="st4" d="M32.4,224.1c-12.6,0-25.2-3.1-36.5-9.4l-22.4-12.5l9.1-16.4L5,198.3c17.1,9.5,38.3,9.4,55.2-0.3l30-17.1
				l9.3,16.3l-30,17.1C58.1,220.9,45.3,224.1,32.4,224.1z"/>
		</g>
	</g>
	<g>
		<defs>
			<path id="SVGID_4_" d="M214,95c0,22.1-10,53.2-27.7,83.8c-17.7,30.7-41.3,56-64.8,69.6c-1.9,1.1-3.6,2-5.3,2.8
				C89.1,265.5,74.6,265.8,68,257c0.2,0,0.6,0,1,0c2.2,0,10.3-0.6,24-8.5v0c0.1-0.1,0.2-0.1,0.3-0.2c0.8-0.5,1.6-1,2.5-1.5
				c0.2-0.1,0.5-0.3,0.7-0.4c0.6-0.4,1.2-0.7,1.8-1.1c0.3-0.2,0.5-0.3,0.8-0.5c0.6-0.4,1.2-0.8,1.8-1.2c0.2-0.1,0.4-0.3,0.6-0.4
				c0.7-0.5,1.5-1,2.2-1.6c0.1-0.1,0.1-0.1,0.2-0.2c2.6-1.9,5.2-3.9,7.8-6.1c0,0,0,0,0,0c0.9-0.7,1.7-1.5,2.6-2.2v0
				c16.1-14,31.4-32.9,43.8-54.4c17.3-30,27.3-62.2,27.7-88.7l0,0c0-0.6,0-1.1,0-1.7c0-0.9,0-1.7,0-2.5c0,0,0-0.1,0-0.1
				c0-0.8-0.1-1.6-0.1-2.3c0-0.1,0-0.1,0-0.2c0-0.7-0.1-1.4-0.1-2.1c0-0.1,0-0.1,0-0.2c-0.1-0.7-0.1-1.3-0.2-2c0-0.1,0-0.1,0-0.2
				c-0.1-0.6-0.2-1.3-0.2-1.9c0-0.1,0-0.1,0-0.2c-0.1-0.6-0.2-1.2-0.3-1.8c0,0,0-0.1,0-0.1c-0.1-0.6-0.2-1.1-0.3-1.7c0,0,0,0,0-0.1
				c-0.1-0.5-0.2-1.1-0.3-1.6c-1.1-4.5-2.4-7.2-3.3-8.4c-0.2,0-0.6,0-1,0C179.8,63,215.1,58.8,214,95z M28.2,231.8
				C28,152.9,83.5,56.7,152.2,17.1c14.5-8.4,28.4-13.5,41.3-15.8c-19.9-3.9-43.8,0.9-69.5,15.8C55.3,56.7-0.2,152.9,0,231.8
				c0.2,62.3,35,95.3,83.5,86.9C50.3,312.2,28.4,281.2,28.2,231.8z"/>
		</defs>
		<clipPath id="SVGID_5_">
			<use xlink:href="#SVGID_4_"  style="overflow:visible;"/>
		</clipPath>
		<g class="st5">
			<path class="st6" d="M151.8,99.6H133V59.9c0-19-10.1-36.9-26.4-46.7l-16.6-10l9.7-16.1l16.6,10c21.9,13.2,35.5,37.2,35.5,62.8
				V99.6z"/>
			<path class="st6" d="M148.4,312.8h-18.8V295c0-22.5-13.2-43.2-33.7-52.6l-13.6-6.3l7.8-17l13.6,6.3
				c27.1,12.4,44.6,39.8,44.6,69.6V312.8z"/>
			<path class="st6" d="M208,159.1c-14.3,0-28.7-4.1-41.2-12.3l10.3-15.7c18.8,12.3,43,12.3,61.8,0l21.8-14.3l10.3,15.7l-21.8,14.3
				C236.7,155,222.3,159.1,208,159.1z"/>
			<path class="st6" d="M32.4,224.1c-12.6,0-25.2-3.1-36.5-9.4l-22.4-12.5l9.1-16.4L5,198.3c17.1,9.5,38.3,9.4,55.2-0.3l30-17.1
				l9.3,16.3l-30,17.1C58.1,220.9,45.3,224.1,32.4,224.1z"/>
		</g>
	</g>
</g>
</svg>
