<svg xmlns="http://www.w3.org/2000/svg" xmlns:xlink="http://www.w3.org/1999/xlink" viewBox="0 0 250.38 320"><defs><style>.cls-1{fill:none;}.cls-2{fill:#6e89c7;}.cls-3{fill:#4a6cb8;}.cls-4{fill:#33c0c9;}.cls-5{fill:#4dc8d0;}.cls-6{fill:#00b0bc;}.cls-7{fill:#fff;}.cls-8{fill:#490b63;}.cls-9{clip-path:url(#clip-path);}.cls-10{clip-path:url(#clip-path-2);}.cls-11{clip-path:url(#clip-path-3);}</style><clipPath id="clip-path"><path class="cls-1" d="M219.71,137.94c-10.37,6-18.75,20.5-18.72,32.41s8.47,16.72,18.84,10.74,18.75-20.5,18.72-32.42S230.08,132,219.71,137.94Z"/></clipPath><clipPath id="clip-path-2"><path class="cls-1" d="M158.33,172.54c-10.37,6-18.75,20.5-18.72,32.42s8.47,16.72,18.84,10.73,18.75-20.5,18.72-32.41S168.7,166.56,158.33,172.54Z"/></clipPath><clipPath id="clip-path-3"><polygon class="cls-1" points="139.61 273.91 238.55 216.79 238.55 205.74 139.61 262.86 139.61 273.91"/></clipPath></defs><title>2010 robot</title><g id="Layer_2" data-name="Layer 2"><g id="NatWest-longform_3-digitisation-desktop"><polygon class="cls-2" points="125.19 306.64 250.38 234.36 228.26 260.49 125.19 320 125.19 306.64"/><polygon class="cls-3" points="125.19 306.64 250.38 234.36 250.38 87.58 125.19 159.86 125.19 306.64"/><polygon class="cls-4" points="125.19 159.86 250.38 87.58 125.19 15.34 0 87.62 125.19 159.86"/><polygon class="cls-5" points="22.12 69.57 125.19 10.06 228.26 69.54 125.19 129.04 22.12 69.57"/><polygon class="cls-6" points="125.19 306.64 0 234.36 0 87.58 125.19 159.86 125.19 306.64"/><path class="cls-3" d="M66.77,204.51c4.11-2.37,6.67-7.43,6.69-14.63,0-14.44-10.12-32-22.7-39.3-5.78-3.34-11.08-3.91-15.11-2.14L29,152.16l33,55Z"/><path class="cls-4" d="M50.76,150.58c-5.78-3.34-11.08-3.91-15.11-2.14L29,152.16l10.91,18.19,12.46,10.51L68.66,171C64.51,162.45,58,154.78,50.76,150.58Z"/><path class="cls-6" d="M45.13,153.79c12.57,7.26,22.73,24.86,22.69,39.3s-10.27,20.28-22.84,13S22.24,181.25,22.29,166.8,32.55,146.53,45.13,153.79Z"/><path class="cls-7" d="M183.93,214.79l10.24-27.52,10.37,15.61Zm10.41-26.1-9.17,24.63,18.45-10.65Z"/><path class="cls-8" d="M211.41,186.91c-8.15,0-13.64-6.65-13.67-16.55,0-13.15,8.9-28.63,20.34-35.24a20.21,20.21,0,0,1,10.06-3c8.14,0,13.63,6.65,13.66,16.55,0,13.15-8.9,28.64-20.34,35.24a20.17,20.17,0,0,1-10.05,3Z"/><path class="cls-7" d="M219.71,137.94c-10.37,6-18.75,20.5-18.72,32.41s8.47,16.72,18.84,10.74,18.75-20.5,18.72-32.42S230.08,132,219.71,137.94Z"/><g class="cls-9"><rect class="cls-8" x="219.45" y="128.79" width="0.65" height="61.44"/><rect class="cls-8" x="193.4" y="159.19" width="52.75" height="0.65" transform="translate(-50.31 131.25) rotate(-30)"/><rect class="cls-8" x="186.27" y="159.19" width="67" height="0.65" transform="translate(-29.35 267.6) rotate(-59.43)"/><rect class="cls-8" x="219.45" y="126.01" width="0.65" height="67" transform="translate(-22.48 282.22) rotate(-62.84)"/></g><path class="cls-7" d="M219.74,149.42c-4.85,2.8-8.77,9.59-8.75,15.16s4,7.82,8.81,5,8.77-9.59,8.75-15.16S224.59,146.62,219.74,149.42Z"/><path class="cls-8" d="M219.75,153a12.55,12.55,0,0,0-5.69,9.86c0,3.62,2.58,5.08,5.73,3.26a12.54,12.54,0,0,0,5.69-9.85C225.47,152.59,222.9,151.13,219.75,153Z"/><path class="cls-8" d="M150,221.52c-8.14,0-13.63-6.65-13.66-16.55,0-13.16,8.9-28.63,20.34-35.24a20.17,20.17,0,0,1,10.05-3c8.15,0,13.64,6.65,13.67,16.55,0,13.15-8.9,28.63-20.34,35.24a20.21,20.21,0,0,1-10.06,3Z"/><path class="cls-7" d="M158.33,172.54c-10.37,6-18.75,20.5-18.72,32.42s8.47,16.72,18.84,10.73,18.75-20.5,18.72-32.41S168.7,166.56,158.33,172.54Z"/><g class="cls-10"><rect class="cls-8" x="158.06" y="163.4" width="0.65" height="61.44"/><rect class="cls-8" x="132.01" y="193.79" width="52.75" height="0.65" transform="translate(-75.84 105.2) rotate(-30)"/><rect class="cls-8" x="124.89" y="193.79" width="67" height="0.65" transform="translate(-89.3 231.76) rotate(-59.43)"/><rect class="cls-8" x="158.06" y="160.62" width="0.65" height="67" transform="translate(-86.63 246.42) rotate(-62.84)"/></g><path class="cls-7" d="M158.36,184c-4.85,2.8-8.77,9.59-8.75,15.16s4,7.82,8.81,5,8.77-9.59,8.75-15.16S163.21,181.23,158.36,184Z"/><path class="cls-8" d="M158.37,187.56a12.54,12.54,0,0,0-5.69,9.85c0,3.63,2.57,5.09,5.73,3.27a12.55,12.55,0,0,0,5.69-9.86C164.09,187.2,161.52,185.74,158.37,187.56Z"/><polygon class="cls-6" points="136.36 278.19 241.8 217.31 241.8 201.46 136.36 262.34 136.36 278.19"/><polygon class="cls-7" points="139.61 273.91 238.55 216.79 238.55 205.74 139.61 262.86 139.61 273.91"/><g class="cls-11"><rect class="cls-8" x="129.23" y="239.5" width="119.71" height="0.65" transform="translate(-94.58 126.67) rotate(-30)"/><rect class="cls-8" x="225.86" y="210.33" width="0.65" height="15"/><rect class="cls-8" x="213.49" y="217.47" width="0.65" height="15"/><rect class="cls-8" x="201.12" y="224.61" width="0.65" height="15"/><rect class="cls-8" x="188.76" y="231.75" width="0.65" height="15"/><rect class="cls-8" x="176.39" y="238.89" width="0.65" height="15"/><rect class="cls-8" x="164.02" y="246.03" width="0.65" height="15"/><rect class="cls-8" x="151.65" y="253.17" width="0.65" height="15"/></g><polygon class="cls-2" points="125.19 129.04 125.19 159.86 250.38 87.58 228.26 69.54 125.19 129.04"/><polygon class="cls-4" points="22.12 69.57 0 87.58 125.19 159.86 125.19 129.04 22.12 69.57"/><path class="cls-7" d="M65.65,55.33a8.79,8.79,0,0,0-4.44,1.14c-3.22,1.85-5,5.78-5,11,0,11.07,7.79,24.61,17.43,30.17,4.62,2.67,8.95,3.12,12.19,1.25s5-5.78,5-11c0-11.07-7.79-24.61-17.42-30.17h0A15.79,15.79,0,0,0,65.65,55.33Zm15.72,45.4a16.42,16.42,0,0,1-8.08-2.47C63.47,92.59,55.51,78.8,55.54,67.52c0-5.52,1.92-9.64,5.34-11.61s8-1.55,12.85,1.24c9.82,5.67,17.78,19.46,17.75,30.74,0,5.52-1.91,9.64-5.34,11.62A9.51,9.51,0,0,1,81.37,100.73Z"/><path class="cls-7" d="M85,44.4a8.79,8.79,0,0,0-4.45,1.13c-3.21,1.86-5,5.78-5,11,0,11.08,7.78,24.61,17.42,30.18,4.63,2.67,9,3.11,12.2,1.24s5-5.77,5-11c0-11.07-7.78-24.61-17.42-30.17h0A15.81,15.81,0,0,0,85,44.4ZM100.7,89.79a16.42,16.42,0,0,1-8.08-2.47C82.8,81.65,74.84,67.86,74.87,56.58c0-5.51,1.91-9.64,5.34-11.61s8-1.54,12.85,1.25c9.82,5.67,17.78,19.45,17.74,30.73,0,5.52-1.91,9.65-5.34,11.62A9.37,9.37,0,0,1,100.7,89.79Z"/><path class="cls-7" d="M104.31,33.46a8.8,8.8,0,0,0-4.45,1.14c-3.22,1.85-5,5.77-5,11,0,11.07,7.78,24.61,17.42,30.17,4.62,2.67,9,3.11,12.2,1.25s5-5.78,5-11.06c0-11.07-7.78-24.6-17.42-30.17h0A15.81,15.81,0,0,0,104.31,33.46ZM120,78.86a16.4,16.4,0,0,1-8.08-2.48c-9.81-5.66-17.77-19.45-17.74-30.74,0-5.51,1.91-9.63,5.34-11.61s8-1.54,12.84,1.25C122.2,41,130.16,54.74,130.13,66c0,5.51-1.91,9.64-5.34,11.61A9.42,9.42,0,0,1,120,78.86Z"/><path class="cls-7" d="M123.63,22.52a8.79,8.79,0,0,0-4.44,1.14c-3.22,1.85-5,5.78-5,11.05,0,11.07,7.79,24.61,17.43,30.17,4.62,2.67,9,3.12,12.19,1.25s5-5.78,5-11c0-11.07-7.79-24.61-17.42-30.17h0A15.79,15.79,0,0,0,123.63,22.52Zm15.72,45.4a16.48,16.48,0,0,1-8.08-2.47c-9.82-5.67-17.78-19.46-17.75-30.74,0-5.52,1.92-9.64,5.34-11.61s8-1.55,12.85,1.24c9.82,5.67,17.78,19.46,17.75,30.74,0,5.52-1.91,9.64-5.34,11.62A9.51,9.51,0,0,1,139.35,67.92Z"/><path class="cls-7" d="M143,11.59a8.79,8.79,0,0,0-4.45,1.13c-3.21,1.86-5,5.78-5,11,0,11.08,7.79,24.61,17.42,30.18,4.63,2.67,9,3.11,12.2,1.24s5-5.77,5-11c0-11.07-7.78-24.6-17.42-30.17h0A15.81,15.81,0,0,0,143,11.59ZM158.68,57a16.42,16.42,0,0,1-8.08-2.47c-9.82-5.67-17.78-19.46-17.75-30.74,0-5.51,1.91-9.64,5.34-11.61s8-1.54,12.85,1.25c9.82,5.67,17.78,19.45,17.74,30.73,0,5.52-1.91,9.65-5.33,11.62A9.41,9.41,0,0,1,158.68,57Z"/><path class="cls-7" d="M162.29.65a8.8,8.8,0,0,0-4.45,1.14c-3.22,1.85-5,5.77-5,11.05,0,11.07,7.78,24.61,17.42,30.17,4.62,2.67,9,3.11,12.2,1.25s5-5.78,5-11.06C187.49,22.13,179.68,8.6,170,3h0A15.81,15.81,0,0,0,162.29.65ZM178,46.05a16.4,16.4,0,0,1-8.08-2.48c-9.81-5.66-17.77-19.45-17.74-30.74,0-5.51,1.91-9.63,5.34-11.61s8-1.54,12.84,1.25c9.82,5.67,17.78,19.46,17.75,30.74,0,5.51-1.91,9.64-5.34,11.61A9.42,9.42,0,0,1,178,46.05Z"/><path class="cls-7" d="M49.16,154.65h-.65V114.34l.37,0c.19,0,19.59,2.65,24.26-16.49l.63.15c-4.45,18.22-21.84,17.3-24.61,17Z"/><polygon class="cls-4" points="125.19 320 125.19 306.64 0 234.36 22.12 260.53 125.19 320"/></g></g></svg>