<svg xmlns="http://www.w3.org/2000/svg" xmlns:xlink="http://www.w3.org/1999/xlink" viewBox="0 0 320 312.03"><defs><style>.cls-1{fill:#f6f3f7;}.cls-2{fill:url(#linear-gradient);}.cls-3{fill:#fff;}.cls-4{fill:#4a6cb8;}</style><linearGradient id="linear-gradient" x1="87.54" y1="109.54" x2="352.4" y2="278.78" gradientUnits="userSpaceOnUse"><stop offset="0" stop-color="#f6f3f7"/><stop offset="1" stop-color="#77488a"/></linearGradient></defs><title>2016 sign</title><g id="Layer_2" data-name="Layer 2"><g id="NatWest-longform_3-digitisation-desktop"><polygon class="cls-1" points="0 308.74 5.69 312.03 320 3.29 314.31 0 0 181.47 0 308.74"/><polygon class="cls-2" points="5.69 312.03 320 130.56 320 3.29 5.69 184.76 5.69 312.03"/><polygon class="cls-3" points="0 181.47 5.69 184.76 320 3.29 314.31 0 0 181.47"/><path class="cls-4" d="M45,193.66q7.38-4.18,12-1.92t5.91,8.93l-8.17,4.72a6.17,6.17,0,0,0-3.45-4c-1.73-.58-3.83-.19-6.3,1.19a18.65,18.65,0,0,0-4.67,3.94,23.26,23.26,0,0,0-3.21,4.87,17.83,17.83,0,0,0-2,6,89.69,89.69,0,0,0-.53,12.1,71,71,0,0,0,.6,11.35,5.51,5.51,0,0,0,2,3.79,4.58,4.58,0,0,0,3.23,1.08,8.17,8.17,0,0,0,4.68-1.38q6.51-3.75,9.7-13.6L63,226a42.84,42.84,0,0,1-6.36,16.23,35.05,35.05,0,0,1-11.49,11c-4,2.21-7.34,3-10,2.43a8.43,8.43,0,0,1-6-3.72c-.38-.68-.72-1.32-1-2a13.31,13.31,0,0,1-.7-2.73,105.59,105.59,0,0,1-.56-13.27,121.69,121.69,0,0,1,.48-14A27.83,27.83,0,0,1,29,213.4,42.35,42.35,0,0,1,35,202.74,32.92,32.92,0,0,1,45,193.66Z"/><polygon class="cls-4" points="81.76 172.89 81.91 223.05 106.71 208.73 106.74 217.12 74.21 235.9 74.04 177.35 81.76 172.89"/><path class="cls-4" d="M153.79,147a122.7,122.7,0,0,1,.48,13.41c0,6.68-.12,11.3-.41,13.82a23.42,23.42,0,0,1-1.77,6.7,39.89,39.89,0,0,1-5.78,10.5,34.39,34.39,0,0,1-10.12,9.21c-4,2.21-7.36,3-10,2.43a8.38,8.38,0,0,1-6-3.72c-.37-.68-.71-1.32-1-2a12.13,12.13,0,0,1-.7-2.73,100.78,100.78,0,0,1-.57-13.26,118.74,118.74,0,0,1,.49-14,27.84,27.84,0,0,1,1.69-6.56A42.38,42.38,0,0,1,126,150.17a33,33,0,0,1,10-9.09c4.06-2.28,7.43-3.13,10.14-2.55a8.39,8.39,0,0,1,5.82,3.88A8.59,8.59,0,0,1,153.79,147Zm-7.72,29.84a91.22,91.22,0,0,0,.48-12,78.55,78.55,0,0,0-.55-11.47,5.58,5.58,0,0,0-2.08-3.66,4.58,4.58,0,0,0-3.08-1.23,10.09,10.09,0,0,0-4.79,1.52,18.75,18.75,0,0,0-4.69,3.95,23.48,23.48,0,0,0-3.2,4.85,17.79,17.79,0,0,0-2,6,86.39,86.39,0,0,0-.53,12.1,71.36,71.36,0,0,0,.59,11.35,5.4,5.4,0,0,0,2,3.79,4.47,4.47,0,0,0,3.21,1.08,8.15,8.15,0,0,0,4.7-1.38,17.32,17.32,0,0,0,4.78-4.09,20.68,20.68,0,0,0,3.07-4.71,19.6,19.6,0,0,0,2-6.13"/><path class="cls-4" d="M183.82,113.49c6.33-3.49,11.85-4.66,16.54-3.47l-4.27,9.78c-3.84-.68-8,.25-12.64,2.8a18.38,18.38,0,0,0-5.92,5.46,13.74,13.74,0,0,0-2.54,7.83,3.89,3.89,0,0,0,1.73,3.58q1.71,1.09,5.49-.28c1.4-.53,3.31-1.33,5.73-2.38,4.78-2,8.32-2.08,10.61-.21s3.41,4.82,3.42,9q-.34,17-17.84,27.36-11.32,6.53-19.49,3.21l5.05-9.59q6.09,2.22,14.49-2.54,9.9-5.88,10-14c0-4.38-2.18-5.73-6.66-4l-6.75,2.81q-6.57,2.55-10,.19c-2.35-1.62-3.55-4.55-3.56-8.81a28.06,28.06,0,0,1,4.41-14.93A33.88,33.88,0,0,1,183.82,113.49Z"/><polygon class="cls-4" points="248.25 76.77 248.27 85.17 223.46 99.5 223.5 116.2 244.69 103.97 244.71 111.85 223.53 124.08 223.58 141.25 248.39 126.93 248.42 135.32 215.88 154.1 215.71 95.56 248.25 76.77"/><path class="cls-4" d="M297,65.47c.27,2.25.41,6.35.42,12.26a105.68,105.68,0,0,1-.55,13.51,23.59,23.59,0,0,1-.83,3.85c-.39,1.2-.87,2.48-1.42,3.84a42.67,42.67,0,0,1-6.2,10.42,32.44,32.44,0,0,1-9.67,8.48l-17.3,10-.17-58.55L279.06,59q10.35-5.88,15.54.93A10.75,10.75,0,0,1,297,65.47Zm-7.58,27.9c.21-2,.3-5.64.29-10.87,0-5.08-.13-8.66-.35-10.74s-.95-3.42-2-4.19c-2.08-2.08-5-2.06-8.71.09l-.38.23L269,73.22,269.1,115l9.24-5.33a21.84,21.84,0,0,0,9.41-10.55,17.13,17.13,0,0,0,1.63-5.72"/></g></g></svg>