<svg xmlns="http://www.w3.org/2000/svg" viewBox="0 0 320 198.66"><defs><style>.cls-1{fill:#00b0bc;}.cls-2{fill:#4a6cb8;}.cls-3{fill:#26bcc6;}.cls-4{fill:#fff;}.cls-5{fill:#42145f;}.cls-6{fill:#490b63;}</style></defs><title>2007 smartphone</title><g id="Layer_2" data-name="Layer 2"><g id="NatWest-longform_3-digitisation-desktop"><path class="cls-1" d="M320,140.47h0V127.3L292.85,122,108.59,15.58c-4.81-2.78-12.59-2.78-17.37,0l-77.36,45L0,57.83V71.54H0c0,1.82,1.22,3.65,3.63,5l207.77,120c4.82,2.78,12.6,2.78,17.38,0l87.65-50.94C318.88,144.22,320.06,142.34,320,140.47Z"/><path class="cls-2" d="M220.21,80V198.66a17.67,17.67,0,0,0,8.57-2.08l87.65-50.94c2.45-1.42,3.63-3.3,3.56-5.17h0V127.3L292.85,122Z"/><path class="cls-3" d="M316.37,122.09c4.82,2.78,4.84,7.28.06,10.06l-87.65,50.93c-4.78,2.78-12.56,2.79-17.38,0L3.63,63.09C-1.19,60.31-1.21,55.8,3.57,53L91.22,2.08c4.78-2.77,12.56-2.77,17.37,0Z"/><polygon class="cls-4" points="288.76 114.07 197.36 167.18 23.75 66.84 115.15 13.73 288.76 114.07"/><path class="cls-5" d="M58.61,29.42a1.42,1.42,0,0,1,0,2.68,5.15,5.15,0,0,1-4.62,0c-1.28-.74-1.29-2,0-2.68A5.08,5.08,0,0,1,58.61,29.42Z"/><path class="cls-6" d="M282.86,157.81V160a.71.71,0,0,1-.36.63l-19.36,11.24a.35.35,0,0,1-.53-.31v-2.23a.52.52,0,0,1,.27-.46l19.48-11.31A.33.33,0,0,1,282.86,157.81Z"/></g></g></svg>