<svg xmlns="http://www.w3.org/2000/svg" viewBox="0 0 240.21 320"><defs><style>.cls-1{fill:#00b0bc;}.cls-2{fill:#33c0c9;}.cls-3{fill:#fff;}.cls-4{fill:#490b63;}.cls-5{fill:#4a6cb8;}</style></defs><title>2018 teddy</title><g id="Layer_2" data-name="Layer 2"><g id="NatWest-longform_3-digitisation-desktop"><path class="cls-1" d="M140.75,124s26.4,21.24,43.93,34.22c21.23,15.72,25.72,34,18.37,45.12-9.79,14.77-26.92,8.06-26.92,8.06l-37.9-84.38Z"/><circle class="cls-2" cx="134.54" cy="27.32" r="27.32"/><circle class="cls-3" cx="134.54" cy="27.32" r="19.26"/><circle class="cls-2" cx="88.59" cy="83.21" r="66.24"/><circle class="cls-2" cx="27.32" cy="55.89" r="27.32"/><path class="cls-3" d="M40.94,42.27c7.52,7.52,7.52,7.52-6.4,21.58C21.36,77.16,21.23,77,13.71,69.5A19.25,19.25,0,0,1,40.94,42.27Z"/><path class="cls-2" d="M52.4,138.69S47.09,151.59,36.77,178,3.07,256.48,41.2,280.49s67.73,37.4,67.73,37.4L154.83,270s29.37-10.74,32.32-38.12,4.1-47.17-48.92-104.78Z"/><path class="cls-2" d="M169.73,261.28s16.9,11.77,36.61,11.77V239.24L176,226.31Z"/><path class="cls-1" d="M69,146.5a66.11,66.11,0,0,1-22-11.7h0S8,170.7,2.71,230.43a41.12,41.12,0,0,0-.4,5,25.86,25.86,0,1,0,41.21-20.81C50.61,169.28,69,146.5,69,146.5Z"/><path class="cls-1" d="M206.34,273.05c-14.34,0-26-18.46-26-41.22s11.62-41.22,26-41.22h7.91v82.44Z"/><ellipse class="cls-2" cx="214.25" cy="231.83" rx="25.96" ry="41.22"/><ellipse class="cls-3" cx="214.25" cy="231.83" rx="17.61" ry="30.35"/><path class="cls-1" d="M119,320c-17.63,0-31.92-18.44-31.92-41.2s14.29-41.23,31.92-41.23h9.73V320Z"/><ellipse class="cls-2" cx="128.77" cy="278.78" rx="31.92" ry="41.22"/><ellipse class="cls-3" cx="128.77" cy="278.78" rx="21.65" ry="30.35"/><circle class="cls-4" cx="88.59" cy="90.08" r="5.24"/><circle class="cls-4" cx="130.92" cy="81.91" r="5.24"/><path class="cls-1" d="M149.4,109.51c-.72-3-12.15-26.46-40.47-19.43C77.32,97.91,76.05,124,78.54,133.22c3,11.24,22.15,27.56,52.38,16.23C157.32,136.35,150.11,112.51,149.4,109.51Z"/><path class="cls-4" d="M115.63,119.7a3.44,3.44,0,0,1-2.87-4.39c1-3.36,3.44-8.84,10.33-9.87,7.15-1.06,10.74,2.79,12.18,5.66a3.43,3.43,0,0,1-1.09,4.32,22.78,22.78,0,0,1-7,3.06A30.62,30.62,0,0,1,115.63,119.7Z"/><ellipse class="cls-4" cx="130.92" cy="170.87" rx="10.08" ry="12.06" transform="translate(-81 133.09) rotate(-42.43)"/><ellipse class="cls-5" cx="130.92" cy="170.87" rx="6.11" ry="7.31" transform="translate(-81 133.09) rotate(-42.43)"/><ellipse class="cls-4" cx="133.25" cy="170.5" rx="1.06" ry="1.27" transform="translate(-80.14 134.57) rotate(-42.43)"/><ellipse class="cls-4" cx="128.59" cy="171.24" rx="1.06" ry="1.27" transform="translate(-81.86 131.61) rotate(-42.43)"/><ellipse class="cls-4" cx="143.8" cy="201.48" rx="10.08" ry="12.06" transform="translate(-98.28 149.8) rotate(-42.43)"/><ellipse class="cls-5" cx="143.8" cy="201.48" rx="6.11" ry="7.31" transform="translate(-98.28 149.8) rotate(-42.43)"/><ellipse class="cls-4" cx="146.13" cy="201.11" rx="1.06" ry="1.27" transform="translate(-97.42 151.28) rotate(-42.43)"/><ellipse class="cls-4" cx="141.47" cy="201.85" rx="1.06" ry="1.27" transform="translate(-99.14 148.32) rotate(-42.43)"/></g></g></svg>