<svg xmlns="http://www.w3.org/2000/svg" xmlns:xlink="http://www.w3.org/1999/xlink" viewBox="0 0 201.56 250"><defs><style>.cls-1{fill:#f6f3f7;}.cls-2{fill:#fff;}.cls-3{fill:#33c0c9;}.cls-4{fill:url(#linear-gradient);}.cls-5{fill:#4a6cb8;}.cls-6{fill:#00b0bc;}</style><linearGradient id="linear-gradient" x1="102.93" y1="105.75" x2="243.42" y2="151.18" gradientUnits="userSpaceOnUse"><stop offset="0" stop-color="#f6f3f7"/><stop offset="1" stop-color="#77488a"/></linearGradient></defs><title>2004 thumbs</title><g id="Layer_2" data-name="Layer 2"><g id="NatWest-longform_3-digitisation-desktop"><path class="cls-1" d="M132.93,0l0,19.74L143.2,34.49l10.15,10.68,13.35.55.23,79.26-17.39,26.86-51,29.46-14.66-4.82L61.55,189.36l-.21-73.2C69,111.74,79.8,102.1,89.22,73.34s18.85-57.75,19.35-59.28Z"/><polygon class="cls-2" points="187.99 65.59 153.35 45.17 163.88 79.51 187.99 65.59"/><polygon class="cls-1" points="201.34 66.15 166.71 45.72 153.35 45.17 187.99 65.59 201.34 66.15"/><polygon class="cls-3" points="49.74 97.23 95.94 124.35 46.2 153.06 0 125.95 49.74 97.23"/><path class="cls-4" d="M167.56,20.43l.06,19.74L163.8,52.41l.08,27.1L188,65.59l13.36.56.22,79.26-17.38,26.86-51,29.46-14.65-4.82L96.19,209.79,96,136.59c7.66-4.42,18.45-14.06,27.87-42.82S142.71,36,143.2,34.49Z"/><polygon class="cls-5" points="95.94 124.35 96.22 221.28 46.48 250 46.2 153.06 95.94 124.35"/><polygon class="cls-6" points="0 125.95 46.2 153.06 46.48 250 0.28 222.88 0 125.95"/><polygon class="cls-2" points="167.56 20.43 132.93 0 108.57 14.06 143.2 34.49 167.56 20.43"/></g></g></svg>