<svg xmlns="http://www.w3.org/2000/svg" xmlns:xlink="http://www.w3.org/1999/xlink" viewBox="0 0 243.66 320"><defs><style>.cls-1{fill:none;}.cls-2{fill:url(#linear-gradient);}.cls-3{fill:#fff;}.cls-4{fill:#f6f3f7;}.cls-5{fill:#4a6cb8;}.cls-6{fill:#00b0bc;}.cls-7{clip-path:url(#clip-path);}</style><linearGradient id="linear-gradient" x1="66.28" y1="117.46" x2="237.07" y2="236.16" gradientUnits="userSpaceOnUse"><stop offset="0" stop-color="#f6f3f7"/><stop offset="1" stop-color="#77488a"/></linearGradient><clipPath id="clip-path"><path class="cls-1" d="M213.43,13.58,4,136.1a15,15,0,0,0,1.66,1.11c7.45,4.31,19.49,4.31,26.89,0L228.73,22.38Z"/></clipPath></defs><title>2015 wallet</title><g id="Layer_2" data-name="Layer 2"><g id="NatWest-longform_3-digitisation-desktop"><polygon class="cls-2" points="32.4 316.82 240.39 195.17 240.39 15.56 32.4 137.21 32.4 316.82"/><path class="cls-3" d="M213.43,0,5.44,121.65l0,0c-7.35,4.3-7.3,11.25.13,15.54s19.49,4.31,26.89,0L213.43,31.33Z"/><path class="cls-4" d="M5.61,137.21C1.9,135.07,0,132.27,0,129.46H0V308.77c-.08,2.89,1.79,5.8,5.61,8,7.45,4.31,19.49,4.31,26.89,0V137.21C25.1,141.52,13.06,141.52,5.61,137.21Z"/><path class="cls-4" d="M211.06,124.73c-5.9,3.4-10.51,11.38-10.49,18.16,0,5.37,3.06,9,7.56,9a10.8,10.8,0,0,0,5.38-1.59l28.33-16.21a3.6,3.6,0,0,0,1.82-3.13V108.36a3.52,3.52,0,0,0-1.63-3l-1.64-1v3.93Z"/><path class="cls-5" d="M212.25,126.79c5.14-3,9.33-.58,9.35,5.33s-4.15,13.12-9.29,16.09-9.33.58-9.35-5.33S207.1,129.77,212.25,126.79Z"/><path class="cls-6" d="M213.43,13.58,4,136.1a15,15,0,0,0,1.66,1.11c7.45,4.31,19.49,4.31,26.89,0L228.73,22.38Z"/></g></g></svg>