<svg xmlns="http://www.w3.org/2000/svg" viewBox="0 0 80 102.66"><defs><style>.cls-1{fill:#00b0bc;}.cls-2{fill:#33c0c9;}.cls-3{fill:#4a6cb8;}.cls-4{fill:#fff;}</style></defs><title>Be aware</title><g id="Layer_2" data-name="Layer 2"><g id="NatWest-longform_3-digitisation-desktop"><polygon class="cls-1" points="47.16 83.45 43.52 73.96 37.22 78.09 35.42 90.55 46.98 97.27 46.99 95.4 46.98 96.04 47.16 83.45"/><polygon class="cls-2" points="38.36 77.53 36.57 89.99 46.98 96.04 58.63 89.03 48.47 82.98 44.83 73.5 38.36 77.53"/><polygon class="cls-3" points="44.83 73.5 38.36 77.53 36.57 89.99 48.47 82.98 44.83 73.5"/><polygon class="cls-3" points="46.98 96.04 46.98 97.27 58.63 90.26 58.63 89.03 46.98 96.04"/><polygon class="cls-1" points="0 45.12 0 101.62 1.79 102.66 1.79 46.16 0 45.12"/><polygon class="cls-2" points="1.79 46.16 80 1.01 78.2 0 0 45.15 1.79 46.16"/><polygon class="cls-3" points="1.79 102.66 80 57.51 80 1.01 1.79 46.16 1.79 102.66"/><polygon class="cls-2" points="1.79 93.36 80 48.21 80 3.83 1.79 48.98 1.79 93.36"/><path class="cls-3" d="M40.89,40.22C42.62,39.22,44,40,44,42a6.92,6.92,0,0,1-3.13,5.42c-1.74,1-3.15.2-3.15-1.79A6.87,6.87,0,0,1,40.89,40.22Z"/><path class="cls-4" d="M40.87,43.67c3.74-2.16,6.77-.42,6.79,3.87a14.87,14.87,0,0,1-6.74,11.67c-3.73,2.15-6.77.42-6.78-3.87A14.85,14.85,0,0,1,40.87,43.67Z"/></g></g></svg>