<?xml version="1.0" encoding="utf-8"?>
<!-- Generator: Adobe Illustrator 23.0.4, SVG Export Plug-In . SVG Version: 6.00 Build 0)  -->
<svg version="1.1" id="Layer_1" xmlns="http://www.w3.org/2000/svg" xmlns:xlink="http://www.w3.org/1999/xlink" x="0px" y="0px"
	 viewBox="0 0 80 102.7" style="enable-background:new 0 0 80 102.7;" xml:space="preserve">
<style type="text/css">
	.st0{fill:#00B0BC;}
	.st1{fill:#33C0C9;}
	.st2{fill:#4A6CB8;}
	.st3{fill:#FFFFFF;}
	.st4{clip-path:url(#SVGID_2_);fill:#4A6CB8;}
</style>
<title>Be aware</title>
<g>
	<g>
		<polygon class="st0" points="47.2,83.5 43.5,74 37.2,78.1 35.4,90.6 47,97.3 47,95.4 47,96 		"/>
		<polygon class="st1" points="38.4,77.5 36.6,90 47,96 58.6,89 48.5,83 44.8,73.5 		"/>
		<polygon class="st2" points="44.8,73.5 38.4,77.5 36.6,90 48.5,83 		"/>
		<polygon class="st2" points="47,96 47,97.3 58.6,90.3 58.6,89 		"/>
	</g>
	<g>
		<polygon class="st0" points="0,45.1 0,101.6 1.8,102.7 1.8,46.2 		"/>
		<polygon class="st1" points="1.8,46.2 80,1 78.2,0 0,45.2 		"/>
		<polygon class="st2" points="1.8,102.7 80,57.5 80,1 1.8,46.2 		"/>
		<polygon class="st1" points="1.8,93.4 80,48.2 80,3.8 1.8,49 		"/>
	</g>
	<g>
		<polygon class="st2" points="44.4,47.8 44.3,47.7 50,40.2 50,38.3 50.2,38.3 50.2,40.3 		"/>
		<polygon class="st2" points="45.2,48.9 45.1,48.8 51.6,45 52.7,45.6 52.6,45.8 51.6,45.3 		"/>
		<polygon class="st2" points="50.2,54.2 50,54.2 50,52.1 44.4,51.2 44.4,51 50.2,51.9 		"/>
		<g>
			<polygon class="st2" points="29.3,56.8 29.1,56.7 29.5,55.4 35.4,54.3 35.4,54.5 29.7,55.5 			"/>
			<polygon class="st2" points="31.8,64.5 31.6,64.5 31.6,62.6 37.3,55 37.5,55.2 31.8,62.7 			"/>
			<polygon class="st2" points="35.9,51.5 30.1,50.6 30.1,48.6 30.3,48.6 30.3,50.4 36,51.3 			"/>
		</g>
		<g>
			<g>
				<path class="st2" d="M40.9,40.2c1.7-1,3.1-0.2,3.2,1.8c0,2-1.4,4.4-3.1,5.4c-1.7,1-3.1,0.2-3.2-1.8
					C37.8,43.7,39.2,41.2,40.9,40.2z"/>
			</g>
			<g>
				<path class="st3" d="M40.9,43.7c3.7-2.2,6.8-0.4,6.8,3.9c0,4.3-3,9.5-6.7,11.7c-3.7,2.2-6.8,0.4-6.8-3.9
					C34.1,51.1,37.1,45.8,40.9,43.7z"/>
			</g>
			<g>
				<defs>
					<path id="SVGID_1_" d="M40.9,43.7c3.7-2.2,6.8-0.4,6.8,3.9c0,4.3-3,9.5-6.7,11.7c-3.7,2.2-6.8,0.4-6.8-3.9
						C34.1,51.1,37.1,45.8,40.9,43.7z"/>
				</defs>
				<clipPath id="SVGID_2_">
					<use xlink:href="#SVGID_1_"  style="overflow:visible;"/>
				</clipPath>
				<rect x="40.8" y="42.7" class="st4" width="0.2" height="17.4"/>
			</g>
		</g>
	</g>
</g>
</svg>
