<svg xmlns="http://www.w3.org/2000/svg" viewBox="0 0 81 102.54"><defs><style>.cls-1{fill:#00b6bd;}.cls-2{fill:#516ab3;}.cls-3{fill:#44c2c9;}</style></defs><title>Evolving</title><g id="Layer_2" data-name="Layer 2"><g id="NatWest-longform_3-digitisation-desktop"><g id="box_to_animate_code_" data-name="box to animate (code)"><polygon class="cls-1" points="81 46.67 64.76 56.04 64.76 74.79 81 65.42 81 46.67"/><polygon class="cls-2" points="48.49 46.67 64.73 56.04 64.73 74.79 48.49 65.42 48.49 46.67"/><polygon class="cls-3" points="81 46.67 64.76 56.04 48.53 46.67 64.76 37.29 81 46.67"/></g><g id="box_to_animate_code_2" data-name="box to animate (code)"><polygon class="cls-1" points="81 28.02 64.76 37.4 64.76 56.14 81 46.77 81 28.02"/><polygon class="cls-2" points="48.49 28.02 64.73 37.4 64.73 56.14 48.49 46.77 48.49 28.02"/><polygon class="cls-3" points="81 28.02 64.76 37.4 48.53 28.02 64.76 18.65 81 28.02"/></g><g id="box_to_animate_code_3" data-name="box to animate (code)"><polygon class="cls-1" points="81 9.37 64.76 18.75 64.76 37.5 81 28.12 81 9.37"/><polygon class="cls-2" points="48.49 9.37 64.73 18.75 64.73 37.5 48.49 28.12 48.49 9.37"/><polygon class="cls-3" points="81 9.37 64.76 18.75 48.53 9.37 64.76 0 81 9.37"/></g><g id="box_to_animate_code_4" data-name="box to animate (code)"><polygon class="cls-1" points="56.25 60.31 40.02 69.69 40.02 88.44 56.25 79.06 56.25 60.31"/><polygon class="cls-2" points="23.75 60.31 39.98 69.69 39.98 88.44 23.75 79.06 23.75 60.31"/><polygon class="cls-3" points="56.25 60.31 40.02 69.69 23.78 60.31 40.01 50.94 56.25 60.31"/></g><g id="box_to_animate_code_5" data-name="box to animate (code)"><polygon class="cls-1" points="56.25 41.67 40.02 51.04 40.02 69.79 56.25 60.42 56.25 41.67"/><polygon class="cls-2" points="23.75 41.67 39.98 51.04 39.98 69.79 23.75 60.42 23.75 41.67"/><polygon class="cls-3" points="56.25 41.67 40.02 51.04 23.78 41.67 40.01 32.29 56.25 41.67"/></g><g id="box_to_animate_code_6" data-name="box to animate (code)"><polygon class="cls-1" points="32.51 74.42 16.27 83.79 16.27 102.54 32.51 93.17 32.51 74.42"/><polygon class="cls-2" points="0 74.42 16.24 83.79 16.24 102.54 0 93.17 0 74.42"/><polygon class="cls-3" points="32.51 74.42 16.27 83.79 0.04 74.42 16.27 65.04 32.51 74.42"/></g></g></g></svg>