<svg xmlns="http://www.w3.org/2000/svg" xmlns:xlink="http://www.w3.org/1999/xlink" viewBox="0 0 98 115.94"><defs><style>.cls-1{fill:#00b0bc;}.cls-2{fill:#33c0c9;}.cls-3{fill:#4a6cb8;}.cls-4{fill:#fff;}.cls-5{fill:url(#linear-gradient);}.cls-6{fill:#06b3bb;}.cls-7{isolation:isolate;}.cls-8{fill:#490b63;}</style><linearGradient id="linear-gradient" x1="18.06" y1="53.48" x2="323.44" y2="118.96" gradientTransform="translate(80.21 -16.73) rotate(59.84)" gradientUnits="userSpaceOnUse"><stop offset="0" stop-color="#fff" stop-opacity="0.25"/><stop offset="1" stop-color="#42145f" stop-opacity="0.75"/></linearGradient></defs><title>Future hold</title><g id="Layer_2" data-name="Layer 2"><g id="NatWest-longform_3-digitisation-desktop"><path class="cls-1" d="M86.72,11.34,72.94,3h0A24.45,24.45,0,0,0,60.88,0C54.65,0,48,2,41.21,5.94,30.1,12.35,19.72,23.27,12,36.7S0,64.56,0,77.33C0,90.5,4.73,100.5,12.65,105.56l12.25,7.3L57.57,59.21,45.51,103.3C56.62,96.88,67,86,74.76,72.53s12-27.85,12-40.62A42.8,42.8,0,0,0,83.89,16Z"/><path class="cls-2" d="M72.94,3h0A24.45,24.45,0,0,0,60.88,0C54.65,0,48,2,41.21,5.94,33.05,10.65,25.27,17.8,18.65,26.59L30,33.25l54.17-16.6L83.89,16l2.83-4.66Z"/><path class="cls-3" d="M37.12,115.94c-15.64,0-25.79-12.52-25.84-31.9,0-12.77,4.21-27.2,12-40.63S41.38,19.06,52.49,12.65c6.82-3.94,13.43-5.94,19.66-5.94C87.8,6.71,97.94,19.24,98,38.62c0,12.77-4.21,27.2-12,40.63S67.9,103.6,56.79,110C50,114,43.35,115.94,37.12,115.94Z"/><ellipse class="cls-4" cx="54.64" cy="61.33" rx="55.42" ry="32.1" transform="matrix(0.5, -0.86, 0.86, 0.5, -25.84, 77.75)"/><ellipse class="cls-5" cx="54.64" cy="61.33" rx="55.42" ry="32.1" transform="matrix(0.5, -0.86, 0.86, 0.5, -25.84, 77.75)"/><path class="cls-1" d="M78.5,11.68c8.54,3.37,14,12.62,14,26.45C92.59,63.08,75,93.47,53.33,106c-9,5.21-17.34,6.51-24,4.48,6.87,2.71,15.74,1.62,25.43-4C76.48,94,94,63.58,94,38.63,93.91,24,87.86,14.55,78.5,11.68Z"/><polygon class="cls-6" points="55.27 95.2 55.28 102.26 54.23 102.87 54.21 95.81 55.27 95.2"/><g class="cls-7"><polygon class="cls-6" points="70.05 81.77 73.14 86.11 72.23 87.25 69.14 82.91 70.05 81.77"/><polygon class="cls-6" points="72.02 15.22 72.94 15.3 69.89 23.18 68.97 23.1 72.02 15.22"/><polygon class="cls-6" points="55.05 19.79 55.07 26.85 54.01 27.46 53.99 20.4 55.05 19.79"/><polygon class="cls-6" points="90.53 40 90.53 41.22 84.39 44.77 84.38 43.55 90.53 40"/><polygon class="cls-6" points="39.39 99.47 40.31 99.55 37.26 107.44 36.34 107.36 39.39 99.47"/><polygon class="cls-6" points="28.66 92.91 29.2 93.66 23.89 100.26 23.35 99.52 28.66 92.91"/><polygon class="cls-6" points="24.89 77.89 24.9 79.11 18.75 82.66 18.75 81.44 24.89 77.89"/><polygon class="cls-6" points="23.77 57.97 29.1 58.43 28.57 59.79 23.24 59.33 23.77 57.97"/><polygon class="cls-6" points="37.05 35.41 40.14 39.75 39.22 40.88 36.14 36.55 37.05 35.41"/></g><polygon class="cls-6" points="85.39 22.39 85.92 23.14 80.62 29.74 80.08 28.99 85.39 22.39"/><polygon class="cls-6" points="80.71 62.86 86.04 63.32 85.51 64.68 80.18 64.22 80.71 62.86"/><rect class="cls-8" x="62.34" y="56.98" width="0.81" height="19.86" transform="translate(-27.87 81.16) rotate(-55.78)"/><path class="cls-1" d="M51.93,63.31a1.47,1.47,0,0,1-.63-1.37,4.68,4.68,0,0,1,2.12-3.67,1.51,1.51,0,0,1,1.51-.16l1.2.62L53.25,64Z"/><rect class="cls-8" x="54.18" y="32.04" width="0.81" height="26.23"/><ellipse class="cls-3" cx="54.64" cy="61.33" rx="3" ry="1.74" transform="translate(-25.84 77.75) rotate(-59.84)"/></g></g></svg>