<svg xmlns="http://www.w3.org/2000/svg" viewBox="0 0 80 102.66"><defs><style>.cls-1{fill:#00b0bc;}.cls-2{fill:#33c0c9;}.cls-3{fill:#4a6cb8;}.cls-4{fill:#fff;}</style></defs><title>Reaping</title><g id="Layer_2" data-name="Layer 2"><g id="NatWest-longform_3-digitisation-desktop"><polygon class="cls-1" points="47.16 83.45 43.52 73.96 37.22 78.09 35.42 90.55 46.98 97.27 46.99 95.4 46.98 96.04 47.16 83.45"/><polygon class="cls-2" points="38.36 77.53 36.57 89.99 46.98 96.04 58.63 89.03 48.47 82.98 44.83 73.5 38.36 77.53"/><polygon class="cls-3" points="44.83 73.5 38.36 77.53 36.57 89.99 48.47 82.98 44.83 73.5"/><polygon class="cls-3" points="46.98 96.04 46.98 97.27 58.63 90.26 58.63 89.03 46.98 96.04"/><polygon class="cls-1" points="0 45.12 0 101.62 1.79 102.66 1.79 46.16 0 45.12"/><polygon class="cls-2" points="1.79 46.16 80 1.01 78.2 0 0 45.15 1.79 46.16"/><polygon class="cls-3" points="1.79 102.66 80 57.51 80 1.01 1.79 46.16 1.79 102.66"/><polygon class="cls-2" points="1.79 93.36 80 48.21 80 3.83 1.79 48.98 1.79 93.36"/><path class="cls-4" d="M25.29,54C31.23,44,38.76,39.44,44,37.33c3.39-1.36,9.76-3,13.41-1.88l.82-2.71c-2.86-.86-8.86-.62-15.29,2C37.3,37,29.21,41.91,22.86,52.5Z"/><path class="cls-4" d="M32.52,59.22c3.67-5.41,8-9.24,12.54-11.1,3.71-1.52,6.65-1.34,7.79-1l.82-2.71c-2-.59-5.53-.62-9.69,1.09-5.11,2.1-9.76,6.18-13.81,12.12Z"/><path class="cls-4" d="M39.29,63.55A15.34,15.34,0,0,1,44,58.93a5.4,5.4,0,0,1,4.1-.84L49,55.37a8,8,0,0,0-6.34,1.11A17.93,17.93,0,0,0,37,61.94Z"/></g></g></svg>